<svg xmlns="http://www.w3.org/2000/svg" id="Capa_2" viewBox="0 0 670 162.06"><defs><style>.cls-1{fill:#fff;}</style></defs><g id="Capa_1-2"><path class="cls-1" d="M9.4,92.49v-35.63H0v-19.5l10.54-1,2.38-23.43h16.86v23.43h16.49v20.51h-16.49v35.32c0,10,3.54,14.01,8.91,14.01,2.27,0,4.73-.84,6.54-1.67l3.21,18.98c-3.65,1.48-8.62,3.2-15.29,3.2-17,0-23.76-13.77-23.76-34.2Z"></path><path class="cls-1" d="M50.63,80.49c0-29.33,16.11-46.27,33.52-46.27s33.52,16.94,33.52,46.27-16.1,46.21-33.52,46.21-33.52-16.94-33.52-46.21ZM96.77,80.49c0-15.27-4.19-25.18-12.62-25.18s-12.62,9.91-12.62,25.18,4.19,25.11,12.62,25.11,12.62-9.85,12.62-25.11Z"></path><path class="cls-1" d="M124.74,139.7c0-7.32,3.43-13.24,9.76-17.76v-.71c-3.56-3.07-6.28-7.7-6.28-14.98,0-6.36,3.3-12.57,7.67-16.52v-.71c-4.85-4.33-9.24-12.57-9.24-22.88,0-21.17,13.64-31.92,28.46-31.92,3.83,0,7.57.77,10.66,2.13h25.16v19.04h-11.06c1.29,2.63,2.33,7,2.33,11.62,0,20.29-12.04,29.64-27.09,29.64-2.51,0-5.35-.54-8.4-1.71-1.68,1.88-2.4,3.45-2.4,6.56,0,4.35,2.77,6.46,10.29,6.46h11.16c16.87,0,26.27,6.63,26.27,22.42,0,18.33-14.9,31.67-38.51,31.67-16.01,0-28.78-6.67-28.78-22.36ZM172.51,134.85c0-5.56-3.72-6.84-10.49-6.84h-7.14c-4.72,0-7.41-.36-9.64-1.13-2.54,2.76-3.72,5.48-3.72,8.65,0,6.69,6.04,10.12,15.25,10.12s15.74-4.7,15.74-10.81ZM164.5,66.14c0-9.4-3.98-14.34-9.39-14.34s-9.39,4.91-9.39,14.34,4.03,14.7,9.39,14.7,9.39-5.04,9.39-14.7Z"></path><path class="cls-1" d="M193.9,80.49c0-28.62,15.93-46.27,32.45-46.27,19.6,0,29.31,18.26,29.31,42.34,0,4.71-.46,9.42-.85,11.55h-41.16c1.83,12.8,8.66,18.67,17.85,18.67,5.2,0,9.89-2.03,14.88-5.77l6.74,15.76c-7.05,6.26-16.25,9.94-24.41,9.94-19.61,0-34.8-17.01-34.8-46.21ZM238.24,70.82c0-9.7-3.29-16.68-11.43-16.68-6.44,0-12,5.54-13.39,16.68h24.82Z"></path><path class="cls-1" d="M268.47,92.49v-35.63h-9.4v-19.5l10.54-1,2.38-23.43h16.86v23.43h16.49v20.51h-16.49v35.32c0,10,3.54,14.01,8.91,14.01,2.27,0,4.73-.84,6.54-1.67l3.21,18.98c-3.65,1.48-8.61,3.2-15.29,3.2-17,0-23.76-13.77-23.76-34.2Z"></path><path class="cls-1" d="M316.19,0h20.39v30.43l-.91,15.98c5.16-6.02,11.86-12.19,21.24-12.19,14.96,0,21.34,13.54,21.34,35.58v54.76h-20.39v-51.41c0-12.69-2.66-16.67-8.55-16.67-5.12,0-8.25,3.05-12.74,8.57v59.51h-20.39V0Z"></path><path class="cls-1" d="M388.75,80.49c0-28.62,15.93-46.27,32.45-46.27,19.6,0,29.31,18.26,29.31,42.34,0,4.71-.46,9.42-.85,11.55h-41.16c1.83,12.8,8.66,18.67,17.85,18.67,5.2,0,9.89-2.03,14.88-5.77l6.74,15.76c-7.05,6.26-16.25,9.94-24.41,9.94-19.61,0-34.8-17.01-34.8-46.21ZM433.1,70.82c0-9.7-3.29-16.68-11.43-16.68-6.44,0-12,5.54-13.39,16.68h24.82Z"></path><path class="cls-1" d="M461.96,36.35h16.63l1.47,15.42h.51c5.01-11.78,12.53-17.55,19.55-17.55,3.93,0,6.22.65,8.21,1.78l-3.39,22.56c-2.45-.77-4.47-1.42-7.42-1.42-5.19,0-11.49,4.29-15.16,16.31v51.12h-20.39V36.35Z"></path><path class="cls-1" d="M501.86,110.27c0-9.31,5.24-16.49,12.31-16.49s12.31,7.18,12.31,16.49-5.24,16.42-12.31,16.42-12.31-7.18-12.31-16.42Z"></path><path class="cls-1" d="M535.9,80.49c0-28.62,15.93-46.27,32.45-46.27,19.6,0,29.31,18.26,29.31,42.34,0,4.71-.46,9.42-.85,11.55h-41.16c1.83,12.8,8.66,18.67,17.85,18.67,5.2,0,9.89-2.03,14.88-5.77l6.74,15.76c-7.05,6.26-16.25,9.94-24.41,9.94-19.61,0-34.8-17.01-34.8-46.21ZM580.25,70.82c0-9.7-3.29-16.68-11.43-16.68-6.44,0-12,5.54-13.39,16.68h24.82Z"></path><path class="cls-1" d="M608.45,91.11v-54.76h20.39v51.41c0,12.69,2.66,16.67,8.55,16.67,5.12,0,8.25-2.76,12.23-9.7v-58.38h20.39v88.21h-16.63l-1.47-12.24h-.51c-5.74,8.78-12.22,14.37-21.6,14.37-14.96,0-21.34-13.54-21.34-35.58Z"></path></g></svg>