<svg xmlns="http://www.w3.org/2000/svg" id="Capa_2" viewBox="0 0 696.36 174.2"><defs><style>.cls-1{fill:#fff;}</style></defs><g id="Capa_1-2"><polygon class="cls-1" points="137.59 17.01 158.83 17.01 158.83 79.59 171.88 79.59 171.88 17.01 193.11 17.01 193.11 6.03 137.59 6.03 137.59 17.01"></polygon><path class="cls-1" d="M211.29,34.19h-.36l-.99-9.85h-10.62v55.25h12.96v-33.7c3.33-8.41,8.64-11.43,13.05-11.43,2.29,0,3.73.36,5.67.9l2.25-11.25c-1.66-.77-3.44-1.13-6.25-1.13-5.92,0-11.76,4-15.7,11.2Z"></path><path class="cls-1" d="M274.43,62.18c-4.18,5.4-7.38,7.65-12.24,7.65-5.98,0-8.59-3.42-8.59-12.51V24.34h-12.96v34.64c0,13.95,5.17,21.96,17.01,21.96,7.56,0,12.91-3.73,17.77-9.49h.36l.99,8.14h10.62V24.34h-12.96v37.84Z"></path><path class="cls-1" d="M324.86,47.1c-5.98-2.2-11.56-3.87-11.56-8.23,0-3.46,2.63-6.12,8.19-6.12,4.34,0,8.23,1.98,12.1,4.81l5.94-7.96c-4.5-3.49-10.66-6.61-18.36-6.61-12.37,0-20.11,6.93-20.11,16.51s8.28,13.38,15.52,16.11c5.89,2.25,11.88,4.32,11.88,8.95,0,3.78-2.83,6.61-8.86,6.61-5.6,0-10.35-2.34-15.25-6.16l-6.03,8.23c5.4,4.45,13.36,7.69,20.92,7.69,13.95,0,21.46-7.65,21.46-17.14,0-10.3-8.37-13.9-15.84-16.69Z"></path><path class="cls-1" d="M372.75,70.64c-5.31,0-7.83-3.19-7.83-9.7v-26.3h14.08v-10.3h-14.08v-15.07h-10.75l-1.53,15.07-8.55.59v9.72h7.87v26.32c0,11.92,4.72,19.98,17.46,19.98,4.43,0,8.28-1.03,11.29-2.02l-2.2-9.54c-1.62.63-3.87,1.26-5.76,1.26Z"></path><path class="cls-1" d="M431.31,40.54v-.45c6.43-2.25,10.21-9,10.21-15.93,0-13.5-11.11-18.13-26.23-18.13h-23.53v73.56h25.42c16.2,0,28.25-6.88,28.25-21.6,0-9.94-5.98-15.61-14.13-17.46ZM404.81,16.2h9.58c9.54,0,14.35,2.7,14.35,9.81,0,6.39-4.36,10.39-14.62,10.39h-9.31v-20.2ZM415.83,69.42h-11.02v-23.26h11.02c10.98,0,16.83,3.37,16.83,11.11,0,8.28-6.03,12.15-16.83,12.15Z"></path><path class="cls-1" d="M469.75,34.19h-.36l-.99-9.85h-10.62v55.25h12.96v-33.7c3.33-8.41,8.64-11.43,13.05-11.43,2.29,0,3.73.36,5.67.9l2.25-11.25c-1.66-.77-3.44-1.13-6.25-1.13-5.92,0-11.76,4-15.7,11.2Z"></path><rect class="cls-1" x="499.73" y="24.34" width="12.96" height="55.25"></rect><path class="cls-1" d="M506.26,0c-4.59,0-8.01,2.97-8.01,7.33s3.42,7.33,8.01,7.33,8.01-3.06,8.01-7.33-3.42-7.33-8.01-7.33Z"></path><path class="cls-1" d="M564.56,73.6l.99,5.98h10.62V.13h-12.96v20.02l.49,8.91c-4.27-3.73-8.23-6.07-14.49-6.07-12.1,0-23.39,11.02-23.39,29.02s8.91,28.93,22.68,28.93c5.94,0,11.61-3.24,15.7-7.33h.36ZM563.21,64.02c-3.64,4.32-7.24,6.21-11.52,6.21-7.96,0-12.55-6.34-12.55-18.36s5.8-18.18,12.82-18.18c3.73,0,7.47,1.21,11.25,4.59v25.73Z"></path><path class="cls-1" d="M588.85,89.62c0,9.67,9.81,14.4,22.99,14.4,18.04,0,29.47-8.59,29.47-19.48,0-9.54-7.02-13.63-20.22-13.63h-9.83c-6.7,0-8.95-1.89-8.95-4.99,0-2.47,1.03-3.87,2.7-5.29,2.47.97,5.13,1.46,7.47,1.46,11.7,0,21.01-6.57,21.01-18.85,0-3.78-1.35-7.2-3.15-9.27h10.08v-9.63h-19.75c-2.25-.81-5.13-1.35-8.19-1.35-11.56,0-21.82,7.15-21.82,19.84,0,6.52,3.51,11.79,7.29,14.58v.45c-3.19,2.25-6.12,6.03-6.12,10.3s2.16,7.38,4.99,9.22v.45c-5.08,3.06-7.96,7.13-7.96,11.79ZM612.47,31.94c5.4,0,9.58,3.96,9.58,10.89s-4.27,11.11-9.58,11.11-9.58-4.09-9.58-11.11,4.18-10.89,9.58-10.89ZM604.02,80.35c2.11.54,4.5.76,7.47.76h7.58c6.32,0,9.74,1.26,9.74,5.53,0,4.77-6.07,8.95-14.98,8.95s-14.08-2.92-14.08-7.96c0-2.56,1.3-5.04,4.27-7.29Z"></path><path class="cls-1" d="M672.89,80.94c7.02,0,13.68-2.43,18.94-5.98l-4.41-8.05c-4.05,2.52-8.1,4-12.82,4-8.91,0-15.21-5.58-16.29-15.39h35.07c.29-1.35.56-3.82.56-6.3,0-15.43-7.87-26.23-22.81-26.23-13,0-25.46,11.07-25.46,29.02s11.97,28.93,27.22,28.93ZM671.41,33.02c7.56,0,11.34,5.17,11.34,13.68h-24.56c1.12-8.86,6.79-13.68,13.23-13.68Z"></path><path class="cls-1" d="M536.03,153.85h-6.04c-4.12,0-5.5-1.16-5.5-3.07,0-1.52.64-2.38,1.66-3.25,1.52.59,3.15.9,4.59.9,7.19,0,12.91-4.04,12.91-11.58,0-2.32-.83-4.42-1.93-5.69h6.19v-5.91h-12.13c-1.38-.5-3.15-.83-5.03-.83-7.1,0-13.4,4.39-13.4,12.19,0,4.01,2.16,7.24,4.48,8.96v.28c-1.96,1.38-3.76,3.7-3.76,6.33s1.33,4.53,3.07,5.67v.28c-3.12,1.88-4.89,4.38-4.89,7.24,0,5.94,6.03,8.84,14.12,8.84,11.08,0,18.1-5.28,18.1-11.97,0-5.86-4.31-8.38-12.42-8.38ZM530.73,129.92c3.32,0,5.89,2.43,5.89,6.69s-2.63,6.83-5.89,6.83-5.89-2.51-5.89-6.83,2.57-6.69,5.89-6.69ZM531.56,169.03c-5.33,0-8.65-1.8-8.65-4.89,0-1.57.8-3.1,2.63-4.48,1.3.33,2.76.47,4.59.47h4.66c3.88,0,5.98.77,5.98,3.4,0,2.93-3.73,5.5-9.2,5.5Z"></path><path class="cls-1" d="M564.15,153.52c-.83,0-1.71-.69-1.71-2.65v-40.49h-7.96v40.08c0,5.91,2.07,9.56,7.71,9.56,1.91,0,3.23-.3,4.2-.69l-1-5.94c-.61.14-.88.14-1.24.14Z"></path><path class="cls-1" d="M587.1,124.42c-8.46,0-16.14,6.52-16.14,17.83s7.68,17.77,16.14,17.77,16.14-6.52,16.14-17.77-7.68-17.83-16.14-17.83ZM587.1,153.52c-4.98,0-7.96-4.48-7.96-11.28s2.98-11.33,7.96-11.33,7.96,4.53,7.96,11.33-2.98,11.28-7.96,11.28Z"></path><path class="cls-1" d="M628.26,124.42c-3.48,0-6.97,1.74-9.8,4.23l.22-5.64v-12.63h-7.96v48.81h6.27l.69-3.57h.22c2.85,2.82,6.16,4.39,9.26,4.39,7.55,0,14.48-6.72,14.48-18.37,0-10.43-4.91-17.23-13.39-17.23ZM625.48,153.44c-1.96,0-4.42-.75-6.8-2.82v-15.81c2.57-2.57,4.95-3.81,7.41-3.81,5.17,0,7.38,4.01,7.38,10.78,0,7.68-3.45,11.66-7.99,11.66Z"></path><path class="cls-1" d="M662.22,124.42c-5.39,0-10.2,2.1-13.93,4.45l2.93,5.31c2.99-1.82,6.16-3.34,9.54-3.34,4.59,0,6.05,3.04,6.16,6.69-13.93,1.49-19.96,5.28-19.96,12.55,0,5.91,4.09,9.95,10.03,9.95,4.01,0,7.49-1.99,10.53-4.59h.22l.61,3.76h6.52v-20.09c0-9.45-4.17-14.68-12.66-14.68ZM666.92,150.1c-2.51,2.32-4.62,3.68-7.38,3.68s-4.89-1.31-4.89-4.31c0-3.43,3.07-5.83,12.27-6.99v7.63Z"></path><path class="cls-1" d="M695.36,153.38c-.61.14-.88.14-1.24.14-.83,0-1.71-.69-1.71-2.65v-40.49h-7.96v40.08c0,5.91,2.07,9.56,7.71,9.56,1.91,0,3.23-.3,4.2-.69l-1-5.94Z"></path><path class="cls-1" d="M112.81,53.21c-4.55,0-8.41,2.96-9.77,7.06v-9.6l.89-.72-.89-1.1v-1.42h-1.15l-6.04-7.47c3.63,2.33,8.5,2.21,12.03-.65,4.42-3.57,5.11-10.07,1.54-14.48s-10.07-5.11-14.48-1.54c-3.54,2.86-4.67,7.59-3.16,11.63l-8.07-9.99-6.07,4.9v-7.8h-12.85c4.09-1.36,7.06-5.22,7.06-9.77,0-5.68-4.62-10.3-10.3-10.3s-10.3,4.62-10.3,10.3c0,4.55,2.96,8.41,7.06,9.77h-12.85v7.59l-5.88-4.8-8.12,9.95c1.53-4.03.42-8.77-3.11-11.64-4.4-3.59-10.9-2.93-14.49,1.47-3.59,4.4-2.93,10.9,1.47,14.49,3.52,2.87,8.39,3.02,12.03.71l-6.24,7.64h-1.06v1.3l-.83,1.02.83.68v9.86c-1.36-4.09-5.22-7.06-9.77-7.06-5.68,0-10.3,4.62-10.3,10.3s4.62,10.3,10.3,10.3c4.55,0,8.41-2.96,9.77-7.06v9.6l-.89.72.89,1.1v1.42h1.15l6.04,7.47c-3.63-2.33-8.5-2.21-12.03.65-4.42,3.57-5.11,10.07-1.54,14.48,3.57,4.42,10.07,5.11,14.48,1.54,3.54-2.86,4.67-7.59,3.16-11.63l8.07,9.99,6.07-4.9v7.8h12.85c-4.09,1.36-7.06,5.22-7.06,9.77,0,5.68,4.62,10.3,10.3,10.3s10.3-4.62,10.3-10.3c0-4.55-2.96-8.41-7.06-9.77h12.85v-7.59l5.88,4.8,8.12-9.95c-1.53,4.03-.42,8.77,3.1,11.64,4.4,3.59,10.9,2.93,14.49-1.47s2.93-10.9-1.47-14.49c-3.52-2.87-8.39-3.02-12.03-.71l6.23-7.63h1.07v-1.31l.83-1.01-.83-.67v-9.85c1.36,4.09,5.22,7.06,9.77,7.06,5.68,0,10.3-4.62,10.3-10.3s-4.62-10.3-10.3-10.3ZM97.41,26.33c2.73-2.21,6.76-1.78,8.97.95,2.21,2.73,1.78,6.76-.95,8.97-2.73,2.21-6.76,1.78-8.97-.95-2.21-2.73-1.78-6.76.95-8.97ZM55.18,12.25c0-3.52,2.86-6.38,6.38-6.38s6.38,2.86,6.38,6.38-2.86,6.38-6.38,6.38-6.38-2.86-6.38-6.38ZM17.81,36.03c-2.72-2.22-3.13-6.25-.91-8.97,2.22-2.72,6.25-3.13,8.97-.91s3.13,6.25.91,8.97c-2.22,2.72-6.25,3.13-8.97.91ZM10.3,69.88c-3.52,0-6.38-2.86-6.38-6.38s2.86-6.38,6.38-6.38,6.38,2.86,6.38,6.38-2.86,6.38-6.38,6.38ZM25.7,100.68c-2.73,2.21-6.76,1.78-8.97-.95s-1.78-6.76.95-8.97c2.73-2.21,6.76-1.78,8.97.95,2.21,2.73,1.78,6.76-.95,8.97ZM67.93,114.76c0,3.52-2.86,6.38-6.38,6.38s-6.38-2.86-6.38-6.38,2.86-6.38,6.38-6.38,6.38,2.86,6.38,6.38ZM105.29,90.97c2.72,2.22,3.13,6.25.91,8.97s-6.25,3.13-8.97.91c-2.72-2.22-3.13-6.25-.91-8.97s6.25-3.13,8.97-.91ZM71.37,68.19l-6.34,5.13h-6.96l-6.32-5.16v-9.34l6.34-5.13h6.97l6.31,5.15v9.34ZM67.29,47.42l-.72-.58,4.79-3.87v4.46h-4.08ZM55.87,47.42h-4.12v-4.59l4.88,3.98-.75.61ZM45.47,55.82l-4.44,3.59-7.01-5.72h11.45v2.13ZM45.47,71.14v2.18h-11.66l7.2-5.82,4.46,3.64ZM55.82,79.59l.71.58-4.8,3.88v-4.46h4.08ZM67.24,79.59h4.12v4.59l-4.87-3.98.75-.61ZM77.64,71.19l4.44-3.59,7.01,5.72h-11.45v-2.13ZM77.64,55.87v-2.18h11.66l-7.2,5.82-4.46-3.64ZM82.77,33.74l11.05,13.68h-16.18v-9.53l5.13-4.15ZM51.74,28.29h19.62v6.6l-9.76,7.89-9.86-8.05v-6.43ZM40.48,33.63l4.99,4.07v9.71h-16.24l11.25-13.78ZM26.34,55.53l9.7,7.91-9.7,7.84v-15.75ZM40.34,93.27l-11.05-13.68h16.18v9.53l-5.13,4.15ZM71.37,98.72h-19.62v-6.6l9.76-7.89,9.86,8.05v6.44ZM82.63,93.37l-4.98-4.07v-9.71h16.23l-11.25,13.78ZM87.07,63.56l9.69-7.83v15.75l-9.69-7.91ZM112.81,69.88c-3.52,0-6.38-2.86-6.38-6.38s2.86-6.38,6.38-6.38,6.38,2.86,6.38,6.38-2.86,6.38-6.38,6.38Z"></path></g></svg>