<svg xmlns="http://www.w3.org/2000/svg" xmlns:xlink="http://www.w3.org/1999/xlink" width="240px" height="40px" viewBox="0 0 240 40"><title>Group 78</title><defs><polygon id="path-1" points="0 0 30.8535878 0 30.8535878 38.759251 0 38.759251"></polygon><polygon id="path-3" points="0 0 25.0685264 0 25.0685264 27.2118188 0 27.2118188"></polygon></defs><g id="Page-2" stroke="none" stroke-width="1" fill="none" fill-rule="evenodd"><g id="Artboard-Copy-6" transform="translate(-584.000000, -57.000000)"><g id="Group" transform="translate(584.000000, 57.000000)"><g id="Group-3" transform="translate(76.315924, 0.371960)"><mask id="mask-2" fill="white"><use xlink:href="#path-1"></use></mask><g id="Clip-2"></g><path d="M11.9939465,14.9131406 C11.9939465,17.3473718 12.0211081,19.7820528 11.978294,22.2153844 C11.9644829,22.999358 12.283057,23.4648845 12.9446047,23.8373057 C14.8588115,24.9149882 17.1818243,24.7098867 18.6089626,23.0668256 C19.4546572,22.0930432 20.2022935,20.9173077 20.5913038,19.7082882 C21.7044716,16.2516979 21.668563,12.6934564 20.9642012,9.15770403 C20.7777525,8.21990432 20.3970288,7.28930114 19.9412653,6.43920931 C19.25762,5.16362178 18.0882873,4.49209421 16.6123501,4.32522433 C14.1806906,4.05085607 11.9944068,5.91566069 11.9939465,8.28467322 C11.9930257,10.4940124 11.9934861,12.7033516 11.9939465,14.9131406 M0.278522151,0.449885058 L5.18281385,0.449885058 C6.86913887,0.449885058 8.55592426,0.440889377 10.2427097,0.452583762 C12.1274529,0.465177715 11.9792147,0.21059995 11.9939465,2.11318643 C12.0022331,3.16073346 12.0137422,4.20873026 12.0316966,5.25627729 C12.0326173,5.3178977 12.1039742,5.37861855 12.2379411,5.59181618 C12.4810149,5.19825515 12.685418,4.87620978 12.8806137,4.548767 C16.212291,-1.03530184 23.6923372,-1.57504268 27.8499133,3.46748617 C29.1513713,5.04577836 30.0067336,6.84041667 30.370884,8.82171536 C31.3146368,13.954201 31.0839928,18.9247644 27.7707301,23.3155562 C25.0762009,26.8863917 20.8288532,28.2888183 16.451682,27.221031 C14.6028473,26.7703474 13.2309531,25.7304467 12.1500109,23.8660919 C12.069907,24.4211254 11.9994709,24.6851486 11.9990105,24.9491718 C11.9916446,28.2451893 12.0132819,31.5412067 11.9819769,34.8367743 C11.9736903,35.6769709 12.2701668,36.249546 12.9915622,36.7011292 C13.9551107,37.3042896 14.8721621,37.9785158 16.0092691,38.7593409 L0.704361804,38.7593409 C0.948356415,38.4831735 1.09843612,38.2254473 1.32263494,38.0729705 C2.83079786,37.0497118 3.18343913,35.6540319 3.16916775,33.900324 C3.09136569,24.5749515 3.10241451,15.2491293 3.16226224,5.92330702 C3.17239032,4.38054777 2.83954484,3.13599533 1.57951984,2.17525663 C1.03996949,1.76370423 0.525739333,1.3193176 0,0.889773847 C0.0929941728,0.743594035 0.185988346,0.596514654 0.278522151,0.449885058" id="Fill-1" fill="#0C0C0C" mask="url(#mask-2)"></path></g><path d="M188.947849,26.8328306 L173.962284,26.8328306 C173.884629,26.7378903 173.806515,26.6425042 173.72886,26.5471181 C174.455324,25.9253258 175.254389,25.3641526 175.882521,24.6594546 C176.302041,24.1892103 176.710993,23.5192791 176.723859,22.930025 C176.816677,18.7379412 176.845626,14.5427372 176.800136,10.3497618 C176.788648,9.25326782 176.527195,8.13849889 176.231738,7.07097726 C175.768106,5.39325225 174.67818,4.55840131 173.067185,4.45944941 C171.40059,4.35737741 169.397644,5.36115975 168.83522,6.64842591 C168.679911,7.00367214 168.699209,7.44494413 168.69829,7.84699194 C168.690019,12.6733486 168.721265,17.4997052 168.67164,22.3251704 C168.660152,23.4577685 168.953771,24.3215919 169.87644,25.0414446 C170.491706,25.5214951 170.987503,26.1459618 171.624825,26.7958351 L156.605717,26.7958351 C157.500357,25.9707902 158.286096,25.378416 158.888956,24.6447456 C159.310314,24.1321569 159.721564,23.4287961 159.727537,22.806558 C159.790029,16.8302198 159.791867,10.8525445 159.727996,4.87620629 C159.721104,4.2111782 159.340181,3.43204342 158.880685,2.9172261 C158.216252,2.17330394 157.321612,1.62238255 156.524845,0.98944697 L156.853385,0.566895612 L168.684046,0.566895612 L168.684046,5.30321494 C168.759403,5.32104411 168.83522,5.33887328 168.910118,5.35670245 C169.058995,5.12938052 169.224874,4.91097317 169.354452,4.67339947 C171.211737,1.26535339 174.659341,-0.457836002 178.506706,0.105120078 C182.297094,0.659161573 184.792161,3.07768865 185.45062,7.08702352 C185.755266,8.94482316 185.830164,10.8512073 185.847625,12.7366421 C185.876114,15.9285095 185.81546,19.1221598 185.710695,22.31269 C185.673016,23.456877 186.004773,24.3171346 186.933875,25.0222783 C187.580846,25.5139177 188.147406,26.1062919 188.947849,26.8328306" id="Fill-4" fill="#0C0C0C"></path><path d="M14.4903008,17.4475461 L14.5674927,17.4475461 C14.5674927,16.3569555 14.6000649,15.2646129 14.5460753,14.1766502 C14.5313508,13.8796942 14.312715,13.4000971 14.0905096,13.3374648 C12.5966469,12.9152441 11.1451728,12.9905781 9.92750518,14.0864246 C8.07623985,15.7525317 7.66841713,19.7780814 9.12747656,21.7849433 C9.90341062,22.8523206 11.090737,23.2539558 12.3610557,22.8781619 C13.648776,22.4971121 14.4751302,21.4551382 14.4885161,20.1744607 C14.4978862,19.2656352 14.4903008,18.3568096 14.4903008,17.4475461 M1.63139138,1.98831435 C6.78138038,0.332718928 11.7832325,-0.721956675 17.0059513,0.591569958 C20.2091892,1.39746826 22.2179615,3.45207094 22.709669,6.62003964 C23.0706412,8.9426911 23.0550244,11.3327927 23.0675178,13.6931112 C23.0786727,15.7328223 22.8917168,17.7734093 22.7953385,19.8139964 C22.7819527,20.1052585 22.7757059,20.3978347 22.7864146,20.6890968 C22.8653912,22.8764099 23.7332416,23.4146974 25.714796,22.5098138 C25.6487591,24.6511381 23.8956568,26.3606061 21.3875916,26.7293922 C17.8880799,27.2444663 15.6664723,25.8380862 14.3818753,22.2167997 C14.2136596,22.4590072 14.0650765,22.6403343 13.952189,22.8413709 C12.0643356,26.1963605 8.29398328,27.6312099 4.61153144,26.3925793 C1.39490774,25.3103104 -0.47955975,21.9233476 0.106741198,18.2512545 C0.696611711,14.5520061 3.93822236,11.7939943 7.95844423,11.5679924 C10.2045926,11.4418518 12.3900584,11.658218 14.6005111,12.8946587 C14.5268889,9.71267437 15.0596464,6.76764166 14.2828199,3.86027595 C13.7790651,1.97386074 12.6604529,1.09394243 10.9600017,0.989701238 C10.0702878,0.934952712 9.50852756,1.22052102 9.09178092,2.01897352 C7.97361488,4.16029787 6.7894119,6.26789712 5.62885728,8.38776004 C5.4566258,8.70223557 5.27056226,9.0097033 5.02158514,9.43936973 C4.79893357,9.01846306 4.63071784,8.73990256 4.49909016,8.44557449 C3.56252571,6.34848695 2.63354658,4.24789551 1.63139138,1.98831435" id="Fill-6" fill="#0C0C0C"></path><g id="Group-10" transform="translate(214.931474, 0.382555)"><mask id="mask-4" fill="white"><use xlink:href="#path-3"></use></mask><g id="Clip-9"></g><path d="M14.1431376,17.6654965 L14.2163594,17.6654965 C14.2163594,16.5607718 14.2473044,15.4547162 14.1958748,14.3522098 C14.1819278,14.0531799 13.9749019,13.5678109 13.7617741,13.5061416 C12.3439736,13.0953082 10.9553746,13.1552029 9.77554493,14.1973709 C7.93366818,15.8238451 7.48736392,20.0501934 8.92172653,22.0728599 C9.68968366,23.155845 10.8407477,23.5569178 12.0807238,23.1740353 C13.3446714,22.7836105 14.1287548,21.7463228 14.1413943,20.4273082 C14.150547,19.5067043 14.1431376,18.5861004 14.1431376,17.6654965 M14.4111817,13.0700193 C14.2891454,9.9475084 14.3314223,7.10273145 14.0184863,4.29877164 C13.7717986,2.08887863 12.412837,1.05336562 10.5535265,0.998794887 C9.75593195,0.974837002 9.27911861,1.28140919 8.9164964,1.99215976 C7.81293939,4.15679899 6.66623383,6.29836767 5.53086021,8.44614764 C5.34824157,8.79176231 5.13816476,9.12273605 4.85094357,9.61431634 C3.73082449,7.00379426 2.69002902,4.57650563 1.55596293,1.93403971 C3.50200639,1.43092414 5.30247795,0.880780122 7.13781704,0.510320242 C9.85835529,-0.0398237719 12.602865,-0.19643735 15.3669876,0.296030275 C19.5441165,1.04094302 21.9046476,3.43894979 22.4010739,7.70966453 C22.5924094,9.35299794 22.6006905,11.0282752 22.5697455,12.6862495 C22.5222386,15.2355459 22.364463,17.782624 22.2633472,20.331033 C22.2489644,20.6979436 22.2620397,21.0715091 22.3104184,21.435314 C22.5653871,23.3475081 23.4684559,23.7720951 25.0405452,22.7321454 C25.3020516,24.4402539 23.713836,26.3630959 21.5677402,26.9380851 C18.0666053,27.8755483 15.49992,26.4061314 14.0215372,22.5138625 C13.8410978,22.8026881 13.6907316,23.016978 13.566516,23.2454653 C12.0667768,26.0050586 9.31180691,27.4505177 6.18506205,27.1133326 C3.33333476,26.8058731 1.13101503,24.9482497 0.356084396,22.1979733 C-0.563982288,18.9312714 0.324703628,15.6392806 2.723589,13.764798 C5.93532344,11.2549878 9.46653153,11.1640365 13.1459266,12.4936991 C13.4466589,12.6028406 13.7317009,12.7585668 14.4111817,13.0700193" id="Fill-8" fill="#0C0C0C" mask="url(#mask-4)"></path></g><path d="M140.667838,11.2938091 L148.443876,11.2938091 C148.538113,8.34779919 148.686324,5.44682328 147.440017,2.70368495 C146.975915,1.68189434 146.152564,1.03961346 144.931917,1.0291201 C143.591374,1.01818952 142.682635,1.70725328 142.107485,2.80686962 C140.723141,5.45381885 140.793044,8.33599416 140.667838,11.2938091 M156.31769,12.2115406 L155.058552,12.2115406 C150.672364,12.2115406 146.285291,12.2465184 141.899546,12.1870561 C140.81605,12.1721905 140.526705,12.5377091 140.703232,13.5114051 C140.820032,14.1554349 140.834189,14.8173908 140.955413,15.4601089 C141.548704,18.6081159 143.13612,21.0495703 146.4512,21.734699 C149.935729,22.4548056 153.040216,21.595662 155.309849,18.6527127 C155.504515,18.3999977 155.690333,18.1402871 155.973042,17.9448483 C155.353649,20.9918568 153.979924,23.5815298 151.193539,25.2233029 C145.202238,28.7538802 132.84446,26.8663877 131.993237,15.6454916 C131.825116,13.4283327 131.986601,11.119357 132.428582,8.9380505 C133.276708,4.75426174 136.071941,2.1033775 140.113481,0.814880739 C144.181567,-0.481923261 148.194349,-0.302224528 151.962914,1.87033753 C155.27534,3.77925401 157.180416,8.29183462 156.31769,12.2115406" id="Fill-11" fill="#0C0C0C"></path><path d="M190.065884,25.196002 C191.012388,22.505654 191.926889,19.9073962 192.91548,17.0977696 C193.210084,17.6191753 193.396842,17.9243883 193.560365,18.2418801 C194.545448,20.1573552 195.616897,22.0359943 196.477913,24.006285 C197.123675,25.4854282 197.999159,26.1642642 199.656309,25.9625429 C201.546687,25.731879 203.310806,25.374043 204.138504,23.3958588 C204.795226,21.825941 204.318686,20.2055929 202.800071,19.2969701 C201.144674,18.3067817 199.377486,17.5029663 197.659399,16.6171467 C196.557702,16.0488189 195.39682,15.5703887 194.365266,14.8950609 C189.222403,11.5298237 189.559971,4.19681662 195.044785,1.42446458 C196.472214,0.703091736 198.148215,0.315874581 199.751003,0.129501658 C203.385334,-0.292797459 206.9333,0.363673754 210.585167,1.43235802 C209.616743,3.96308305 208.687774,6.38943924 207.661043,9.07189376 C206.963988,7.83393903 206.394507,6.82796377 205.829849,5.81935736 C205.116134,4.54456657 204.384446,3.27942332 203.702735,1.98796859 C203.295023,1.21528838 202.704061,0.834649093 201.84436,0.936386783 C201.088998,1.02584579 200.290234,1.04294824 199.596248,1.31176378 C197.060107,2.29537428 196.493257,5.54747216 198.583984,7.29718501 C199.494101,8.05846358 200.587469,8.62942252 201.659355,9.16266834 C203.259075,9.95902887 204.938144,10.5966435 206.53874,11.39125 C208.871464,12.5493932 210.819711,14.0706348 211.216024,16.9035032 C211.725005,20.5397486 210.116079,23.6624817 206.828961,25.3332602 C204.419518,26.5576206 201.827701,26.8720427 199.168808,26.8290673 C196.088176,26.778637 193.089086,26.2971371 190.065884,25.196002" id="Fill-13" fill="#0C0C0C"></path><path d="M49.1935228,1.58591095 C48.0888248,4.61049083 47.0350862,7.4968142 45.887634,10.6390871 C44.7008826,7.96452372 43.6277103,5.54722242 42.5558337,3.12948361 C42.4526191,2.89759769 42.3558825,2.66177409 42.2543954,2.42901314 C41.5910583,0.90556642 40.8741706,0.609802497 39.3069504,1.22889414 C37.8740388,1.79504579 37.1342625,2.98772694 36.6816731,4.37510475 C35.7402182,7.2609906 35.6171381,10.2475062 35.9056206,13.2353343 C36.0477026,14.704966 36.3314346,16.2069742 36.8444844,17.5821015 C37.6948168,19.8593962 39.3216337,21.4432207 41.7953281,21.800675 C44.4417666,22.1826305 46.5937252,21.2227103 48.1890163,19.0294196 C48.3993321,18.7402185 48.6105117,18.4518924 48.9857981,17.9382432 C48.9322475,18.4448921 48.9369979,18.7074044 48.8743782,18.9519784 C47.3697778,24.7994412 42.5420142,27.7601431 36.4549466,26.5748998 C31.2514648,25.5620396 27.6968246,21.7197337 27.0123264,16.2922907 C26.6189019,13.1732064 26.8266266,10.1057495 28.0928403,7.18267441 C29.7913459,3.26073979 32.981928,1.28445926 36.9295608,0.400667652 C41.0637572,-0.525125929 45.0623495,0.271599076 49.1935228,1.58591095" id="Fill-15" fill="#0C0C0C"></path><path d="M108.809049,1.49271426 L120.395396,1.49271426 L120.395396,7.01264129 C120.499267,7.02939437 120.603138,7.04614746 120.707008,7.06247098 C120.907039,6.58951847 121.080308,6.10453812 121.310729,5.64533174 C122.359868,3.55678036 123.630357,1.63318244 126.276111,1.19717264 C127.168311,1.0498314 128.172092,1.11297765 129.045695,1.34709128 C130.825558,1.82433945 131.130366,2.53698995 130.528461,4.17234887 C129.856703,5.99542827 129.191749,7.82022594 128.517723,9.64201664 C128.39707,9.96805747 128.24648,10.2837887 128.02876,10.7941135 C126.736953,9.33058107 125.56217,7.99849596 124.386935,6.66555171 C123.198545,5.31800221 122.888747,5.3257344 121.764312,6.69132569 C120.859413,7.78972673 120.340966,8.93838703 120.384057,10.4199612 C120.495185,14.2817623 120.444383,18.1487182 120.405829,22.0130967 C120.39585,23.0320279 120.794096,23.6948488 121.722129,24.1832656 C123.232564,24.9775337 124.706258,25.834089 126.497914,26.8328306 L108.476119,26.8328306 C109.296652,26.106434 109.907176,25.5033229 110.586644,24.9805407 C111.394931,24.3585287 111.657102,23.5960485 111.652113,22.6290947 C111.62263,17.1538426 111.615826,11.6790201 111.656195,6.2041975 C111.66436,5.08603641 111.398106,4.16246885 110.467352,3.45110705 C109.79514,2.93691618 109.122022,2.42358445 108.449357,1.90982314 C108.569103,1.77064366 108.688849,1.63146418 108.809049,1.49271426" id="Fill-17" fill="#0C0C0C"></path><path d="M73.7884994,18.8885438 C73.7884994,21.3029818 73.7853829,23.7169789 73.7902842,26.1314169 C73.792061,26.9465156 73.1972632,26.8261684 72.6919521,26.8270501 C69.5763867,26.8314584 66.4608212,26.8296951 63.3452558,26.8296951 C60.1922928,26.8296951 57.0397751,26.8296951 53.8872574,26.8296951 L52.5476266,26.8296951 C53.1401984,26.2879123 53.4977004,25.86824 53.939792,25.574205 C55.1187027,24.7895236 55.4143208,23.7152156 55.3996289,22.3539257 C55.3408615,16.8827573 55.3172655,11.4093846 55.4107591,5.93865701 C55.4388072,4.2806871 55.0768532,2.99874705 53.6303724,2.09283688 C53.3240693,1.90107487 53.0792049,1.61321144 52.6571478,1.23585908 C53.1085887,1.19442085 53.4073232,1.14284348 53.706503,1.14284348 C59.8263319,1.13799433 65.9461608,1.16179927 72.0655445,1.11803461 C73.1585301,1.1102219 73.4750729,1.48757426 73.4439084,2.52220744 C73.3806889,4.59720462 73.4252097,6.67572845 73.4252097,8.75292979 C73.321031,8.7873147 73.2164071,8.82258128 73.1122284,8.85696619 C72.516095,8.00924587 71.9101669,7.16769719 71.3251636,6.31248272 C70.4721451,5.06669092 69.6195718,3.82045828 68.7954919,2.55659236 C68.3338112,1.84773417 67.7443558,1.46905931 66.8668509,1.49506841 C65.7182143,1.52945332 64.5673517,1.52063668 63.4178247,1.4990359 C62.6422724,1.48448844 62.2228864,1.79703847 62.2224412,2.5900956 C62.221996,6.00522267 62.2228864,9.42079058 62.217544,12.8363585 C62.2162083,13.4764468 62.5091552,13.7109696 63.1618301,13.7656328 C64.8456067,13.9058174 66.291197,13.6474897 67.3472303,12.1358761 C67.9041855,11.3384107 68.6890872,10.696559 69.5363179,9.81180874 L69.5363179,18.0346518 C68.6004908,17.0608535 67.7047323,16.3065896 67.0342491,15.3905403 C65.9403731,13.8974416 64.4293372,14.0327771 62.9147396,14.1720801 C62.6618615,14.1954442 62.2580579,14.6957887 62.2544962,14.9801255 C62.2108658,18.4684307 62.2242221,21.9571767 62.2344619,25.4459228 C62.2366879,26.1155469 62.6262449,26.4576327 63.29005,26.462041 C64.7730378,26.4712985 66.2680462,26.5673999 67.734116,26.4100228 C68.3213454,26.3469838 69.0185411,25.8254793 69.3684745,25.3136731 C70.8198525,23.1923886 72.1577025,20.9948401 73.5374021,18.825064 C73.6211012,18.8462239 73.7048003,18.8673838 73.7884994,18.8885438" id="Fill-19" fill="#4DA8A4"></path></g></g></g></svg>