<svg xmlns="http://www.w3.org/2000/svg" xmlns:xlink="http://www.w3.org/1999/xlink" width="210px" height="50px" viewBox="0 0 210 50"><title>UFV_logo</title><g id="UFV_logo" stroke="none" stroke-width="1" fill="none" fill-rule="evenodd"><g id="logo_ufv_1"><rect id="Rectangle" fill="#003764" fill-rule="nonzero" x="0" y="0" width="49.8977104" height="50"></rect><path d="M65.1696712,10.9503991 L65.1696712,3.32605581 L66.7799337,3.32605581 L66.7799337,11.2949444 C66.7799337,12.567374 66.357793,13.5805417 65.5135116,14.3310364 C64.6692302,15.081531 63.5457913,15.4601897 62.1465992,15.4601897 C60.747407,15.4601897 59.6341812,15.0849423 58.7864954,14.3310364 C57.9388097,13.5805417 57.5132647,12.567374 57.5132647,11.2949444 L57.5132647,3.32605581 L59.1235271,3.32605581 L59.1235271,10.9469878 C59.1235271,11.9021628 59.3890672,12.6560688 59.9201475,13.2121171 C60.4512277,13.7681654 61.1729521,14.0444839 62.0819163,14.0444839 C62.9908805,14.0444839 63.7875009,13.7681654 64.3424116,13.2121171 C64.893918,12.6594801 65.1730756,11.9021628 65.1730756,10.9469878" id="Path" fill="#003764" fill-rule="nonzero"></path><path d="M75.5223312,15.1463465 L74.1095216,15.1463465 L74.1095216,9.79736645 C74.1095216,9.07416252 73.9699428,8.52834823 73.6907853,8.15992359 C73.4116277,7.79149894 72.9690609,7.60728662 72.3698935,7.60728662 C71.5800818,7.60728662 70.9809144,7.86654841 70.5723912,8.38166064 C70.1604636,8.89677287 69.9562019,9.62338814 69.9562019,10.5546838 L69.9562019,15.1463465 L68.5433924,15.1463465 L68.5433924,6.53612608 L69.9085409,6.53612608 L69.9085409,7.73691751 C70.2796162,7.18769189 70.6983525,6.80903323 71.1579412,6.60094153 C71.6175298,6.39284983 72.1111621,6.28709831 72.6354336,6.28709831 C73.5239716,6.28709831 74.2252699,6.54294876 74.746137,7.05123832 C75.2670042,7.56293921 75.5257356,8.26226376 75.5257356,9.14921198 L75.5257356,15.1429351 L75.5223312,15.1463465 Z" id="Path" fill="#003764" fill-rule="nonzero"></path><path d="M77.0985501,3.32605581 L78.5454032,3.32605581 L78.5454032,4.97373269 L77.0985501,4.97373269 L77.0985501,3.32605581 Z M78.5283814,15.1463465 L77.1155719,15.1463465 L77.1155719,6.53612608 L78.5283814,6.53612608 L78.5283814,15.1463465 Z" id="Shape" fill="#003764" fill-rule="nonzero"></path><polygon id="Path" fill="#003764" fill-rule="nonzero" points="86.9065124 6.53612608 83.634922 15.1463465 82.0927468 15.1463465 78.9539265 6.53612608 80.6288718 6.53612608 82.879154 13.5839531 85.3268892 6.53612608"></polygon><path d="M94.5765364,12.4479771 C94.3246137,13.4679675 93.8820468,14.2116395 93.2454315,14.678993 C92.6088161,15.1463465 91.7781521,15.3783175 90.7466309,15.3783175 C89.5517004,15.3783175 88.6086926,14.9894248 87.9142031,14.2082282 C87.2197135,13.4304428 86.8724688,12.376339 86.8724688,11.0459166 C86.8724688,9.58586341 87.2367353,8.42941939 87.9652685,7.57317323 C88.6938016,6.71692707 89.6980879,6.29050965 90.9815318,6.29050965 C92.1322056,6.29050965 93.0343611,6.71351573 93.6914027,7.55952787 C94.3484442,8.40554002 94.6786672,9.5244593 94.6786672,10.9162857 L94.6786672,11.3120011 L88.3874092,11.3120011 C88.4623051,12.1887153 88.6495449,12.8505151 88.9457243,13.2871665 C89.3406301,13.8466262 89.9738411,14.126356 90.8521661,14.126356 C91.4989946,14.126356 92.0198617,13.9523777 92.4113632,13.6078324 C92.806269,13.2632872 93.0581916,12.8743945 93.1671312,12.4479771 L94.5799407,12.4479771 L94.5765364,12.4479771 Z M88.3976222,10.1589684 L93.194366,10.1589684 C93.1296832,9.32660162 92.9083998,8.69209252 92.5305158,8.25885243 C92.1526318,7.82561234 91.597721,7.60728662 90.8623792,7.60728662 C90.086185,7.60728662 89.4699958,7.89383912 89.0206202,8.46353278 C88.6938016,8.87971618 88.4827312,9.4459985 88.3976222,10.1589684" id="Shape" fill="#003764" fill-rule="nonzero"></path><path d="M97.208107,15.1463465 L95.7952974,15.1463465 L95.7952974,6.53612608 L97.1604459,6.53612608 L97.1604459,8.00300198 C97.500882,7.4230743 97.8719572,6.98983421 98.2770761,6.71010439 C98.682195,6.43037457 99.1213575,6.29050965 99.5911592,6.29050965 L100.003087,6.3553251 L100.003087,7.83584635 L99.4277499,7.83584635 C98.8251782,7.83584635 98.304311,8.06099475 97.8685529,8.51129153 C97.4293904,8.96158832 97.2115113,9.50399127 97.2115113,10.1419117 L97.2115113,15.1463465 L97.208107,15.1463465 Z" id="Path" fill="#003764" fill-rule="nonzero"></path><path d="M107.639067,12.4957358 C107.639067,13.4167974 107.308844,14.1297673 106.644994,14.6346456 C105.981144,15.1395238 105.058562,15.3919629 103.877249,15.3919629 C103.067011,15.3919629 102.324861,15.1804598 101.650797,14.7574538 C100.976734,14.3344477 100.609063,13.543017 100.540976,12.3797503 L101.936764,12.3797503 C101.95719,12.9733233 102.171664,13.4099748 102.576783,13.6965273 C102.981902,13.9830798 103.519791,14.1229447 104.187046,14.1229447 C104.779405,14.1229447 105.259419,14.0069591 105.633899,13.7783994 C106.004974,13.5464283 106.192214,13.2121171 106.192214,12.7754656 C106.192214,12.3388142 105.953909,12.024971 105.477298,11.8373473 C105.000688,11.6497237 104.285772,11.4586887 103.332551,11.260831 C102.665297,11.1175548 102.079747,10.8958177 101.575901,10.5956198 C101.072056,10.295422 100.820133,9.75301904 100.820133,8.97523368 C100.820133,8.11898751 101.133335,7.45718769 101.763141,6.99324555 C102.392948,6.52589207 103.189568,6.29392099 104.153002,6.29392099 C104.929196,6.29392099 105.623686,6.47813332 106.229662,6.84655796 C106.839043,7.2149826 107.216927,7.93136385 107.370123,8.99570171 L105.957313,8.99570171 C105.957313,8.5692843 105.787095,8.22132769 105.446659,7.95865457 C105.106223,7.69598144 104.598973,7.56293921 103.918101,7.56293921 C103.349573,7.56293921 102.920624,7.67551341 102.638062,7.9006618 C102.352096,8.12581019 102.212517,8.42600805 102.212517,8.79784403 C102.212517,9.12874394 102.345287,9.37094903 102.614231,9.53128198 C102.883176,9.69161493 103.444895,9.86218189 104.29939,10.0498056 C105.47049,10.3022447 106.32158,10.5990312 106.845851,10.9401651 C107.370123,11.281299 107.635663,11.8032339 107.635663,12.5025585" id="Path" fill="#003764" fill-rule="nonzero"></path><path d="M108.919107,3.32605581 L110.36596,3.32605581 L110.36596,4.97373269 L108.919107,4.97373269 L108.919107,3.32605581 Z M110.348938,15.1463465 L108.936129,15.1463465 L108.936129,6.53612608 L110.348938,6.53612608 L110.348938,15.1463465 Z" id="Shape" fill="#003764" fill-rule="nonzero"></path><path d="M117.481073,13.9114416 C117.164468,14.4606673 116.803605,14.8427373 116.405295,15.0542403 C116.006985,15.2691547 115.561014,15.3749062 115.067382,15.3749062 C113.862238,15.3749062 112.91923,14.9450774 112.241763,14.0820086 C111.564295,13.2189398 111.223859,12.0590844 111.223859,10.5990312 C111.223859,9.31636761 111.547273,8.27590912 112.194101,7.48106707 C112.84093,6.68622501 113.705637,6.28709831 114.788224,6.28709831 C115.281856,6.28709831 115.761871,6.40308385 116.235077,6.63164358 C116.704879,6.86361466 117.106594,7.25591867 117.433412,7.81537832 L117.433412,3.32605581 L118.846222,3.32605581 L118.846222,15.1463465 L117.481073,15.1463465 L117.481073,13.9114416 L117.481073,13.9114416 Z M117.382347,11.2267176 C117.382347,10.0293375 117.191703,9.12533261 116.80701,8.51129153 C116.422317,7.89725046 115.836767,7.59022992 115.05036,7.59022992 C114.263953,7.59022992 113.657976,7.85631439 113.276688,8.38848332 C112.891995,8.92065225 112.701351,9.69843761 112.701351,10.7184281 C112.701351,11.7384185 112.905613,12.5912533 113.31754,13.2121171 C113.729468,13.8329808 114.304805,14.1434127 115.05036,14.1434127 C115.751658,14.1434127 116.316782,13.8705056 116.742327,13.3281026 C117.167872,12.7856997 117.382347,12.0863751 117.382347,11.2301289" id="Shape" fill="#003764" fill-rule="nonzero"></path><path d="M125.760478,13.9967251 C125.266845,14.5118373 124.773213,14.8734393 124.282985,15.0849423 C123.789353,15.293034 123.285508,15.3987856 122.771449,15.3987856 C121.882911,15.3987856 121.19523,15.1634032 120.701598,14.689227 C120.207966,14.2184622 119.962852,13.6078324 119.962852,12.8607491 C119.962852,12.0590844 120.214775,11.431398 120.71862,10.9742785 C121.222465,10.5205704 121.927168,10.2544859 122.839536,10.1760251 C123.99021,10.0566282 124.749383,9.96111073 125.113649,9.88947261 C125.48132,9.81783448 125.682177,9.541516 125.712817,9.05710582 L125.712817,8.85924814 C125.712817,8.39871734 125.525577,8.05417207 125.154502,7.82902367 C124.783426,7.60387528 124.327242,7.49130108 123.789353,7.49130108 C123.122098,7.49130108 122.621657,7.62434332 122.284626,7.89383912 C121.950998,8.16333493 121.760354,8.58292966 121.716098,9.15262332 L120.384993,9.15262332 C120.405419,8.23156171 120.708407,7.52200314 121.287148,7.02735894 C121.869294,6.53271474 122.751023,6.28709831 123.932336,6.28709831 C124.89577,6.28709831 125.671964,6.50542403 126.257514,6.93866412 C126.843064,7.37190421 127.135839,7.97229992 127.135839,8.73985127 L127.135839,13.7783994 C127.135839,13.8875623 127.173287,13.9796684 127.251588,14.0513065 C127.326483,14.1229447 127.432019,14.1570581 127.564789,14.1570581 L128.075443,14.0922426 L128.075443,15.1463465 C127.90182,15.2111619 127.762242,15.2555093 127.663515,15.2793887 C127.564789,15.2998567 127.432019,15.3135021 127.268609,15.3135021 C126.744338,15.3135021 126.363049,15.2009279 126.128149,14.9757795 C125.893248,14.7506311 125.770691,14.4231425 125.757073,13.9967251 M125.675369,12.2501194 L125.675369,10.7525414 C125.586855,10.8310023 125.396211,10.9128744 125.100032,10.9981579 C124.803852,11.0868527 124.361286,11.1619022 123.768927,11.2301289 C122.948476,11.3051784 122.356117,11.4586887 121.995255,11.6838371 C121.634393,11.9089855 121.453962,12.2842328 121.453962,12.8129904 C121.453962,13.2087057 121.583327,13.5361943 121.838654,13.8022788 C122.093982,14.0649519 122.465057,14.1979941 122.948476,14.1979941 C123.694031,14.1979941 124.323838,14.0069591 124.837896,13.6283005 C125.351954,13.2496418 125.631112,12.7925223 125.675369,12.2535307" id="Shape" fill="#003764" fill-rule="nonzero"></path><path d="M134.92842,13.9114416 C134.611815,14.4606673 134.250953,14.8427373 133.852642,15.0542403 C133.454332,15.2691547 133.008361,15.3749062 132.514729,15.3749062 C131.309585,15.3749062 130.366577,14.9450774 129.68911,14.0820086 C129.008237,13.2189398 128.671206,12.0590844 128.671206,10.5990312 C128.671206,9.31636761 128.99462,8.27590912 129.641449,7.48106707 C130.288277,6.68622501 131.152985,6.28709831 132.235571,6.28709831 C132.729203,6.28709831 133.209218,6.40308385 133.682424,6.63164358 C134.152226,6.86361466 134.553941,7.25591867 134.880759,7.81537832 L134.880759,3.32605581 L136.293569,3.32605581 L136.293569,15.1463465 L134.92842,15.1463465 L134.92842,13.9114416 L134.92842,13.9114416 Z M134.829694,11.2267176 C134.829694,10.0293375 134.63905,9.12533261 134.254357,8.51129153 C133.869664,7.89725046 133.284114,7.59022992 132.497707,7.59022992 C131.7113,7.59022992 131.105324,7.85631439 130.724035,8.38848332 C130.339342,8.92065225 130.148698,9.69843761 130.148698,10.7184281 C130.148698,11.7384185 130.35296,12.5912533 130.764887,13.2121171 C131.176815,13.8329808 131.752152,14.1434127 132.497707,14.1434127 C133.199005,14.1434127 133.764129,13.8705056 134.189674,13.3281026 C134.615219,12.7856997 134.829694,12.0863751 134.829694,11.2301289" id="Shape" fill="#003764" fill-rule="nonzero"></path><polygon id="Path" fill="#1E1E1C" fill-rule="nonzero" points="100.234583 35.1436174 102.467844 35.1436174 102.467844 46.963908 100.97333 46.963908 100.97333 37.050556 97.6404607 46.963908 96.0608375 46.963908 92.7586079 37.050556 92.7586079 46.963908 91.1994109 46.963908 91.1994109 35.1436174 93.4837367 35.1436174 96.8676709 45.2002456"></polygon><path d="M109.256138,45.8108753 C108.762506,46.3259876 108.268874,46.6875895 107.778646,46.8990926 C107.285014,47.1071843 106.781168,47.2129358 106.26711,47.2129358 C105.378572,47.2129358 104.690891,46.9775534 104.197259,46.5067886 C103.703627,46.0360237 103.458513,45.425394 103.458513,44.6783107 C103.458513,43.876646 103.710435,43.2489595 104.214281,42.7918401 C104.718126,42.338132 105.422829,42.0720475 106.331793,41.9935867 C107.482467,41.8741898 108.241639,41.7786723 108.605906,41.7070342 C108.973577,41.6353961 109.174434,41.3590776 109.205073,40.8746674 L109.205073,40.6768097 C109.205073,40.2162789 109.017833,39.8717336 108.646758,39.6465852 C108.275683,39.4214369 107.819498,39.3088627 107.281609,39.3088627 C106.614355,39.3088627 106.113914,39.4419049 105.776882,39.7114007 C105.443255,39.9808965 105.252611,40.4004912 105.208354,40.9701849 L103.877249,40.9701849 C103.897675,40.0491233 104.200663,39.3395647 104.779405,38.8449205 C105.36155,38.3502763 106.243279,38.1046599 107.424593,38.1046599 C108.388027,38.1046599 109.164221,38.3229856 109.749771,38.7562257 C110.335321,39.1894658 110.628096,39.7898615 110.628096,40.5574128 L110.628096,45.595961 C110.628096,45.7051238 110.665544,45.79723 110.743844,45.8688681 C110.822144,45.9405062 110.924275,45.9746196 111.057045,45.9746196 L111.567699,45.9098042 L111.567699,46.963908 C111.394077,47.0287235 111.254498,47.0730709 111.155772,47.0969503 C111.057045,47.1174183 110.924275,47.1310637 110.760866,47.1310637 C110.236594,47.1310637 109.855306,47.0184895 109.620405,46.7933411 C109.385504,46.5681927 109.262947,46.2407041 109.24933,45.8142867 M109.167625,44.067681 L109.167625,42.570103 C109.079112,42.6485638 108.888468,42.730436 108.592288,42.8157195 C108.296109,42.9044143 107.853542,42.9794637 107.261183,43.0476905 C106.440732,43.1261513 105.848374,43.2762503 105.487511,43.5013986 C105.126649,43.726547 104.946218,44.1017944 104.946218,44.630552 C104.946218,45.0262673 105.075584,45.3537559 105.330911,45.6198403 C105.589642,45.8825135 105.957313,46.0155557 106.440732,46.0155557 C107.186287,46.0155557 107.816094,45.8245207 108.330152,45.4492734 C108.844211,45.0706147 109.123368,44.6134953 109.167625,44.0745037" id="Shape" fill="#1E1E1C" fill-rule="nonzero"></path><path d="M118.175563,45.7290032 C117.858957,46.2782288 117.498095,46.6602988 117.099785,46.8718019 C116.701475,47.0867162 116.255503,47.1924678 115.761871,47.1924678 C114.556728,47.1924678 113.61372,46.762639 112.936252,45.8995702 C112.25538,45.0365013 111.918348,43.876646 111.918348,42.4165928 C111.918348,41.1339292 112.241763,40.0934707 112.888591,39.2986286 C113.535419,38.5037866 114.400127,38.1046599 115.482714,38.1046599 C115.976346,38.1046599 116.456361,38.2206454 116.929567,38.4492052 C117.399369,38.6811762 117.801083,39.0734802 118.127902,39.6363512 L118.127902,35.140206 L119.540711,35.140206 L119.540711,46.9604967 L118.175563,46.9604967 L118.175563,45.7255919 L118.175563,45.7290032 Z M118.076836,43.0442792 C118.076836,41.8468991 117.886192,40.9428942 117.501499,40.3288531 C117.116807,39.714812 116.531257,39.4077915 115.744849,39.4077915 C114.958442,39.4077915 114.352466,39.673876 113.971178,40.2060449 C113.586485,40.7382138 113.395841,41.5159992 113.395841,42.5359896 C113.395841,43.5559801 113.600102,44.4088149 114.01203,45.0296787 C114.423958,45.6505424 114.999294,45.9609743 115.744849,45.9609743 C116.446148,45.9609743 117.011271,45.6880671 117.436816,45.1456642 C117.862362,44.6032612 118.076836,43.9039367 118.076836,43.0476905" id="Shape" fill="#1E1E1C" fill-rule="nonzero"></path><path d="M122.495696,46.963908 L121.082886,46.963908 L121.082886,38.3536877 L122.448035,38.3536877 L122.448035,39.8171522 C122.788471,39.2372245 123.159546,38.8039844 123.564665,38.5242546 C123.969784,38.2445248 124.408947,38.1046599 124.878748,38.1046599 L125.290676,38.1694753 L125.290676,39.6499966 L124.715339,39.6499966 C124.112767,39.6499966 123.5919,39.875145 123.156142,40.3254418 C122.716979,40.7757386 122.4991,41.3181415 122.4991,41.9560619 L122.4991,46.9604967 L122.495696,46.963908 Z" id="Path" fill="#1E1E1C" fill-rule="nonzero"></path><path d="M126.226875,35.1436174 L127.673728,35.1436174 L127.673728,36.7912943 L126.226875,36.7912943 L126.226875,35.1436174 Z M127.656706,46.963908 L126.243897,46.963908 L126.243897,38.3536877 L127.656706,38.3536877 L127.656706,46.963908 Z" id="Shape" fill="#1E1E1C" fill-rule="nonzero"></path><path d="M134.948846,45.7290032 C134.632241,46.2782288 134.271379,46.6602988 133.873069,46.8718019 C133.471354,47.0867162 133.028787,47.1924678 132.535155,47.1924678 C131.330011,47.1924678 130.387003,46.762639 129.709536,45.8995702 C129.032068,45.0365013 128.691632,43.876646 128.691632,42.4165928 C128.691632,41.1339292 129.015046,40.0934707 129.661875,39.2986286 C130.308703,38.5037866 131.173411,38.1046599 132.255997,38.1046599 C132.74963,38.1046599 133.229644,38.2206454 133.70285,38.4492052 C134.172652,38.6811762 134.574367,39.0734802 134.901185,39.6363512 L134.901185,35.140206 L136.313995,35.140206 L136.313995,46.9604967 L134.948846,46.9604967 L134.948846,45.7255919 L134.948846,45.7290032 Z M134.85012,43.0442792 C134.85012,41.8468991 134.659476,40.9428942 134.274783,40.3288531 C133.89009,39.714812 133.30454,39.4077915 132.514729,39.4077915 C131.724917,39.4077915 131.122345,39.673876 130.741057,40.2060449 C130.356364,40.7382138 130.16572,41.5159992 130.16572,42.5359896 C130.16572,43.5559801 130.369982,44.4088149 130.781909,45.0296787 C131.193837,45.6505424 131.769174,45.9609743 132.514729,45.9609743 C133.216027,45.9609743 133.781151,45.6880671 134.206696,45.1456642 C134.632241,44.6032612 134.846716,43.9039367 134.846716,43.0476905" id="Shape" fill="#1E1E1C" fill-rule="nonzero"></path><polygon id="Path" fill="#003764" fill-rule="nonzero" points="157.352942 19.253599 159.126614 19.253599 154.840524 31.0738896 153.148557 31.0738896 148.842041 19.253599 150.615713 19.253599 153.999647 29.3750426"></polygon><path d="M159.916426,19.253599 L161.363279,19.253599 L161.363279,20.9012758 L159.916426,20.9012758 L159.916426,19.253599 Z M161.346257,31.0738896 L159.933447,31.0738896 L159.933447,22.4636692 L161.346257,22.4636692 L161.346257,31.0738896 Z" id="Shape" fill="#003764" fill-rule="nonzero"></path><path d="M165.353189,29.2283551 C165.353189,29.4910282 165.417872,29.6752405 165.550642,29.780992 C165.683412,29.8867435 165.901291,29.9379136 166.207684,29.9379136 L166.765999,29.9379136 L166.765999,31.0738896 L165.66639,31.1898751 C165.053605,31.1898751 164.611039,31.0397762 164.345498,30.736167 C164.076554,30.4359692 163.943784,29.9549703 163.943784,29.2965818 L163.943784,23.667872 L162.762471,23.667872 L162.762471,22.4670806 L163.943784,22.4670806 L163.943784,20.0620864 L165.356594,20.0620864 L165.356594,22.4670806 L166.769403,22.4670806 L166.769403,23.667872 L165.356594,23.667872 L165.356594,29.2317664 L165.353189,29.2283551 Z" id="Path" fill="#003764" fill-rule="nonzero"></path><path d="M175.522014,26.7585454 C175.522014,28.0992017 175.150938,29.1908303 174.412192,30.0334311 C173.673446,30.8794433 172.706608,31.3024493 171.511677,31.3024493 C170.316747,31.3024493 169.353313,30.8794433 168.621375,30.0334311 C167.886033,29.187419 167.521767,28.0957904 167.521767,26.7585454 C167.521767,25.4213004 167.889438,24.3262605 168.621375,23.4836597 C169.356717,22.6376475 170.320151,22.2146415 171.511677,22.2146415 C172.703203,22.2146415 173.673446,22.6376475 174.412192,23.4836597 C175.150938,24.3296718 175.522014,25.4213004 175.522014,26.7585454 M174.027499,26.7585454 C174.027499,25.759023 173.802812,24.9607696 173.353436,24.3637852 C172.904061,23.7668008 172.291276,23.466603 171.511677,23.466603 C170.732079,23.466603 170.122698,23.7668008 169.680131,24.3637852 C169.237564,24.9607696 169.016281,25.759023 169.016281,26.7585454 C169.016281,27.7580678 169.237564,28.5563212 169.680131,29.1533056 C170.122698,29.75029 170.735483,30.0504878 171.511677,30.0504878 C172.287871,30.0504878 172.904061,29.75029 173.353436,29.1533056 C173.802812,28.5563212 174.027499,27.7580678 174.027499,26.7585454" id="Shape" fill="#003764" fill-rule="nonzero"></path><path d="M178.265928,31.0738896 L176.853119,31.0738896 L176.853119,22.4636692 L178.218267,22.4636692 L178.218267,23.9305451 C178.558703,23.3472061 178.929778,22.9173774 179.334897,22.6376475 C179.740016,22.3579177 180.179179,22.2180528 180.64898,22.2180528 L181.060908,22.2828683 L181.060908,23.7633895 L180.485571,23.7633895 C179.882999,23.7633895 179.362132,23.9885379 178.926374,24.4388347 C178.487212,24.8891315 178.269333,25.4315344 178.269333,26.0694549 L178.269333,31.0738896 L178.265928,31.0738896 Z" id="Path" fill="#003764" fill-rule="nonzero"></path><path d="M182.160516,19.253599 L183.60737,19.253599 L183.60737,20.9012758 L182.160516,20.9012758 L182.160516,19.253599 Z M183.590348,31.0738896 L182.177538,31.0738896 L182.177538,22.4636692 L183.590348,22.4636692 L183.590348,31.0738896 Z" id="Shape" fill="#003764" fill-rule="nonzero"></path><path d="M190.685035,29.9208569 C190.191403,30.4359692 189.69777,30.7975711 189.207543,31.0090742 C188.71391,31.2171659 188.210065,31.3229174 187.696006,31.3229174 C186.807468,31.3229174 186.119788,31.087535 185.626155,30.6133588 C185.132523,30.142594 184.887409,29.5319642 184.887409,28.7848809 C184.887409,27.9832162 185.139332,27.3555298 185.643177,26.8984103 C186.147023,26.4447022 186.851725,26.1752064 187.764094,26.1001569 C188.914768,25.98076 189.67394,25.8852425 190.038206,25.8136044 C190.405877,25.7419663 190.606735,25.4656478 190.637374,24.9812376 L190.637374,24.78338 C190.637374,24.3228492 190.450134,23.9783039 190.079059,23.7531555 C189.707983,23.5280071 189.251799,23.4154329 188.71391,23.4154329 C188.046656,23.4154329 187.546215,23.5484751 187.209183,23.8179709 C186.875556,24.0874667 186.684911,24.5070615 186.640655,25.0767551 L185.30955,25.0767551 C185.329976,24.1556935 185.632964,23.446135 186.211705,22.9514908 C186.793851,22.4568466 187.67558,22.2112301 188.856893,22.2112301 C189.820327,22.2112301 190.596522,22.4295558 191.182072,22.8627959 C191.767622,23.296036 192.060397,23.8964317 192.060397,24.6639831 L192.060397,29.7025312 C192.060397,29.8116941 192.097844,29.9038002 192.176145,29.9754384 C192.251041,30.0470765 192.356576,30.0811899 192.489346,30.0811899 L193,30.0163744 L193,31.0704783 C192.826378,31.1352937 192.686799,31.1796411 192.588072,31.2035205 C192.489346,31.2239885 192.356576,31.2376339 192.193167,31.2376339 C191.668895,31.2376339 191.287607,31.1250597 191.052706,30.8999113 C190.817805,30.6747629 190.695248,30.3472743 190.681631,29.9208569 M190.599926,28.1742512 L190.599926,26.6766733 C190.511413,26.7551341 190.320768,26.8370062 190.024589,26.9222897 C189.72841,27.0109845 189.285843,27.086034 188.693484,27.1542608 C187.873033,27.2327216 187.280675,27.3828205 186.919812,27.6079689 C186.55895,27.8331173 186.378519,28.2083646 186.378519,28.7371222 C186.378519,29.1328376 186.507885,29.4603261 186.763212,29.7264106 C187.021943,29.9890837 187.389614,30.1221259 187.873033,30.1221259 C188.618588,30.1221259 189.248395,29.9345023 189.762453,29.5558436 C190.276512,29.177185 190.555669,28.7200655 190.599926,28.1810739" id="Shape" fill="#003764" fill-rule="nonzero"></path><path d="M134.965868,29.8389848 C134.649263,30.3882104 134.2884,30.7702804 133.89009,30.9817834 C133.49178,31.1966978 133.042405,31.3024493 132.552177,31.3024493 C131.347033,31.3024493 130.404025,30.8726206 129.726558,30.0095518 C129.045685,29.1464829 128.708654,27.9866275 128.708654,26.5265743 C128.708654,25.2439108 129.032068,24.2034523 129.678896,23.4051989 C130.325725,22.6103568 131.190433,22.2112301 132.273019,22.2112301 C132.766651,22.2112301 133.246666,22.3272157 133.719872,22.5557754 C134.189674,22.7877465 134.591389,23.1800505 134.918207,23.7395101 L134.918207,19.2467763 L136.331017,19.2467763 L136.331017,31.0670669 L134.965868,31.0670669 L134.965868,29.8321621 L134.965868,29.8389848 Z M134.867142,27.1542608 C134.867142,25.9568807 134.676498,25.0528758 134.291805,24.4388347 C133.907112,23.8247936 133.321562,23.5177731 132.535155,23.5177731 C131.748748,23.5177731 131.142771,23.7838575 130.761483,24.3160265 C130.37679,24.8481954 130.186146,25.6259808 130.186146,26.6459712 C130.186146,27.6659617 130.390408,28.5187965 130.802335,29.1396602 C131.214263,29.760524 131.7896,30.0709559 132.535155,30.0709559 C133.236453,30.0709559 133.801577,29.7980487 134.227122,29.2556458 C134.652667,28.7132428 134.867142,28.0139183 134.867142,27.1576721" id="Shape" fill="#003764" fill-rule="nonzero"></path><path d="M145.461511,28.3721089 C145.209589,29.3920993 144.767022,30.1357713 144.130406,30.6031248 C143.493791,31.0704783 142.663127,31.3024493 141.631606,31.3024493 C140.436675,31.3024493 139.493668,30.9135567 138.799178,30.13236 C138.104688,29.3545746 137.757444,28.3004708 137.757444,26.9700484 C137.757444,25.5099952 138.12171,24.3535512 138.850243,23.497305 C139.578777,22.6410589 140.583063,22.2146415 141.866507,22.2146415 C143.017181,22.2146415 143.919336,22.6376475 144.576378,23.4836597 C145.233419,24.3296718 145.563642,25.4485911 145.563642,26.8404175 L145.563642,27.2361329 L139.272384,27.2361329 C139.34728,28.1128471 139.53452,28.7712356 139.830699,29.2112984 C140.225605,29.770758 140.858816,30.0504878 141.737141,30.0504878 C142.38397,30.0504878 142.904837,29.8765095 143.296338,29.5319642 C143.691244,29.187419 143.943167,28.7985263 144.052106,28.3721089 L145.464916,28.3721089 L145.461511,28.3721089 Z M139.282597,26.0831002 L144.079341,26.0831002 C144.014658,25.2507334 143.793375,24.6162243 143.415491,24.1829842 C143.037607,23.7497441 142.482696,23.5314184 141.747354,23.5314184 C140.97116,23.5314184 140.354971,23.8179709 139.905595,24.3876646 C139.575372,24.803848 139.367706,25.3701303 139.282597,26.0831002" id="Shape" fill="#003764" fill-rule="nonzero"></path><polygon id="Path" fill="#003764" fill-rule="nonzero" points="59.2222536 31.0738896 57.6119911 31.0738896 57.6119911 19.253599 65.7620299 19.253599 65.7620299 20.6693048 59.2222536 20.6693048 59.2222536 24.2887358 64.9892401 24.2887358 64.9892401 25.7044416 59.2222536 25.7044416"></polygon><path d="M67.699111,31.0738896 L66.2863014,31.0738896 L66.2863014,22.4636692 L67.6514499,22.4636692 L67.6514499,23.9305451 C67.991886,23.3472061 68.3629613,22.9173774 68.7680802,22.6376475 C69.173199,22.3579177 69.6123615,22.2180528 70.0821633,22.2180528 L70.4940909,22.2828683 L70.4940909,23.7633895 L69.918754,23.7633895 C69.3161822,23.7633895 68.795315,23.9885379 68.3561525,24.4388347 C67.9169901,24.8891315 67.699111,25.4315344 67.699111,26.0694549 L67.699111,31.0738896 Z" id="Path" fill="#003764" fill-rule="nonzero"></path><path d="M77.0168454,29.9208569 C76.5232132,30.4359692 76.0295809,30.7975711 75.539353,31.0090742 C75.0457207,31.2171659 74.5418754,31.3229174 74.027817,31.3229174 C73.1392789,31.3229174 72.4515981,31.087535 71.9579659,30.6133588 C71.4643336,30.142594 71.2192196,29.5319642 71.2192196,28.7848809 C71.2192196,27.9832162 71.4711423,27.3555298 71.9749877,26.8984103 C72.478833,26.4447022 73.1835356,26.1752064 74.0959042,26.1001569 C75.246578,25.98076 76.0057504,25.8852425 76.3700169,25.8136044 C76.7376879,25.7419663 76.9385451,25.4656478 76.9691844,24.9812376 L76.9691844,24.78338 C76.9691844,24.3228492 76.7819445,23.9783039 76.4108693,23.7531555 C76.039794,23.5280071 75.5836097,23.4154329 75.0491251,23.4154329 C74.3818705,23.4154329 73.8780251,23.5484751 73.5443978,23.8179709 C73.2107705,24.0874667 73.0201263,24.5070615 72.9758696,25.0767551 L71.6447647,25.0767551 C71.6651909,24.1556935 71.9681789,23.446135 72.5469202,22.9514908 C73.1290658,22.4568466 74.0107952,22.2112301 75.1921082,22.2112301 C76.1555422,22.2112301 76.9317364,22.4295558 77.5172864,22.8627959 C78.1028364,23.296036 78.3956114,23.8964317 78.3956114,24.6639831 L78.3956114,29.7025312 C78.3956114,29.8116941 78.4330593,29.9038002 78.5113596,29.9754384 C78.5862556,30.0470765 78.6917907,30.0811899 78.8245608,30.0811899 L79.3352148,30.0163744 L79.3352148,31.0704783 C79.1615925,31.1352937 79.0220137,31.1796411 78.9232872,31.2035205 C78.8245608,31.2239885 78.6917907,31.2376339 78.5283814,31.2376339 C78.0041099,31.2376339 77.6228216,31.1250597 77.3879207,30.8999113 C77.1530198,30.6747629 77.0304629,30.3472743 77.0168454,29.9208569 M76.9351408,28.1742512 L76.9351408,26.6766733 C76.8466274,26.7551341 76.6559832,26.8370062 76.3598039,26.9222897 C76.0636245,27.0109845 75.6210576,27.086034 75.0286989,27.1542608 C74.2082481,27.2327216 73.6158894,27.3828205 73.2550272,27.6079689 C72.894165,27.8331173 72.7137339,28.2083646 72.7137339,28.7371222 C72.7137339,29.1328376 72.8430996,29.4603261 73.0984266,29.7264106 C73.357158,29.9890837 73.7248289,30.1221259 74.2082481,30.1221259 C74.953803,30.1221259 75.5836097,29.9345023 76.0976681,29.5558436 C76.6117265,29.177185 76.8908841,28.7200655 76.9351408,28.1810739" id="Shape" fill="#003764" fill-rule="nonzero"></path><path d="M87.4001446,31.0738896 L85.9873351,31.0738896 L85.9873351,25.7249096 C85.9873351,25.0017057 85.8477563,24.4558914 85.5685987,24.0874667 C85.2894412,23.7190421 84.8468743,23.5348298 84.2477069,23.5348298 C83.4578953,23.5348298 82.8587279,23.7940916 82.4502046,24.3092038 C82.038277,24.824316 81.8340154,25.5509313 81.8340154,26.4822269 L81.8340154,31.0738896 L80.4212058,31.0738896 L80.4212058,22.4636692 L81.7863543,22.4636692 L81.7863543,23.6644607 C82.1574296,23.115235 82.5761659,22.7365764 83.0357546,22.5284847 C83.4953433,22.320393 83.9889755,22.2146415 84.513247,22.2146415 C85.4017851,22.2146415 86.1030833,22.4704919 86.6239505,22.9787815 C87.1448176,23.4904824 87.403549,24.1898069 87.403549,25.0767551 L87.403549,31.0704783 L87.4001446,31.0738896 Z" id="Path" fill="#003764" fill-rule="nonzero"></path><path d="M94.7603718,28.0275636 L96.1731814,28.0275636 C95.9859416,29.1703623 95.5774183,29.9993177 94.9476117,30.5212526 C94.317805,31.0431876 93.5654413,31.3024493 92.6871163,31.3024493 C91.4717597,31.3024493 90.5219431,30.9135567 89.8376667,30.13236 C89.1533902,29.3545746 88.8095498,28.2936481 88.8095498,26.9564031 C88.8095498,25.5065839 89.1772208,24.3569625 89.9091583,23.5007164 C90.6445001,22.6444702 91.6521908,22.2180528 92.9322303,22.2180528 C93.7969378,22.2180528 94.5288753,22.4841373 95.1246384,23.0163062 C95.7204015,23.5484751 96.0642419,24.3296718 96.1527552,25.3633076 L94.7569675,25.3633076 C94.658241,24.7151532 94.440362,24.251211 94.0999259,23.9646585 C93.7594899,23.678106 93.3101143,23.5382411 92.7517992,23.5382411 C91.975605,23.5382411 91.379842,23.8247936 90.9679143,24.3944873 C90.5559867,24.9641809 90.3517251,25.7624343 90.3517251,26.7824248 C90.3517251,27.8024152 90.5423693,28.6313707 90.9202533,29.2010643 C91.2981373,29.770758 91.8768786,30.0573105 92.6530727,30.0573105 C93.3101143,30.0573105 93.8037466,29.8423961 94.1305652,29.4159787 C94.4607881,28.9895613 94.6684541,28.5256192 94.7535631,28.0343863" id="Path" fill="#003764" fill-rule="nonzero"></path><path d="M97.4702427,19.253599 L98.9170959,19.253599 L98.9170959,20.9012758 L97.4702427,20.9012758 L97.4702427,19.253599 Z M98.9000741,31.0738896 L97.4872645,31.0738896 L97.4872645,22.4636692 L98.9000741,22.4636692 L98.9000741,31.0738896 Z" id="Shape" fill="#003764" fill-rule="nonzero"></path><path d="M107.475658,28.423279 C107.475658,29.3443406 107.145435,30.0573105 106.481585,30.5621887 C105.817734,31.0670669 104.895153,31.319506 103.71384,31.319506 C102.903602,31.319506 102.161451,31.108003 101.487388,30.6849969 C100.813325,30.2619909 100.445654,29.4705601 100.377566,28.3072934 L101.773354,28.3072934 C101.79378,28.9008665 102.008255,29.3375179 102.413374,29.6240704 C102.818493,29.9106229 103.356382,30.0504878 104.023636,30.0504878 C104.615995,30.0504878 105.09601,29.9345023 105.47049,29.7059426 C105.841565,29.4739715 106.028805,29.1396602 106.028805,28.7030088 C106.028805,28.2663574 105.7905,27.9525142 105.313889,27.7648905 C104.837279,27.5772668 104.122363,27.3862318 103.169142,27.1883742 C102.501887,27.0450979 101.916337,26.8233609 101.412492,26.523163 C100.908647,26.2229651 100.656724,25.6805622 100.656724,24.9027768 C100.656724,24.0465307 100.969925,23.3847308 101.599732,22.9207887 C102.229539,22.4534352 103.026159,22.2214641 103.989593,22.2214641 C104.765787,22.2214641 105.460277,22.4056765 106.066253,22.7741011 C106.675633,23.1425258 107.053517,23.858907 107.206713,24.9232449 L105.793904,24.9232449 C105.793904,24.4968275 105.623686,24.1488708 105.28325,23.8861977 C104.942814,23.6235246 104.435564,23.4904824 103.754692,23.4904824 C103.186164,23.4904824 102.757214,23.6030566 102.474653,23.828205 C102.188686,24.0533533 102.049107,24.3535512 102.049107,24.7253872 C102.049107,25.0562871 102.181878,25.2984922 102.450822,25.4588251 C102.719766,25.6191581 103.281486,25.789725 104.13598,25.9773487 C105.30708,26.2297878 106.15817,26.5265743 106.682442,26.8677083 C107.206713,27.2088422 107.472254,27.7307771 107.472254,28.4301017" id="Path" fill="#003764" fill-rule="nonzero"></path><path d="M114.097139,28.0275636 L115.509948,28.0275636 C115.322709,29.1703623 114.914185,29.9993177 114.284379,30.5212526 C113.654572,31.0431876 112.902208,31.3024493 112.023883,31.3024493 C110.808527,31.3024493 109.85871,30.9135567 109.174434,30.13236 C108.490157,29.3545746 108.146317,28.2936481 108.146317,26.9564031 C108.146317,25.5065839 108.513988,24.3569625 109.245925,23.5007164 C109.977863,22.6444702 110.988958,22.2180528 112.268997,22.2180528 C113.133705,22.2180528 113.865642,22.4841373 114.461405,23.0163062 C115.057169,23.5484751 115.401009,24.3296718 115.489522,25.3633076 L114.093735,25.3633076 C113.995008,24.7151532 113.777129,24.251211 113.436693,23.9646585 C113.096257,23.678106 112.646881,23.5382411 112.088566,23.5382411 C111.312372,23.5382411 110.716609,23.8247936 110.304681,24.3944873 C109.892754,24.9641809 109.688492,25.7624343 109.688492,26.7824248 C109.688492,27.8024152 109.879136,28.6313707 110.25702,29.2010643 C110.634904,29.770758 111.213646,30.0573105 111.98984,30.0573105 C112.646881,30.0573105 113.140514,29.8423961 113.467332,29.4159787 C113.797555,28.9895613 114.005221,28.5256192 114.09033,28.0343863" id="Path" fill="#003764" fill-rule="nonzero"></path><path d="M124.446395,26.7585454 C124.446395,28.0992017 124.075319,29.1908303 123.336573,30.0334311 C122.597827,30.8794433 121.630988,31.3024493 120.436058,31.3024493 C119.241127,31.3024493 118.277694,30.8794433 117.545756,30.0334311 C116.810414,29.187419 116.446148,28.0957904 116.446148,26.7585454 C116.446148,25.4213004 116.813819,24.3262605 117.545756,23.4836597 C118.281098,22.6376475 119.244532,22.2146415 120.436058,22.2146415 C121.627584,22.2146415 122.597827,22.6376475 123.336573,23.4836597 C124.075319,24.3296718 124.446395,25.4213004 124.446395,26.7585454 M122.95188,26.7585454 C122.95188,25.759023 122.727193,24.9607696 122.277817,24.3637852 C121.828441,23.7668008 121.215657,23.466603 120.436058,23.466603 C119.656459,23.466603 119.047079,23.7668008 118.604512,24.3637852 C118.161945,24.9607696 117.940662,25.759023 117.940662,26.7585454 C117.940662,27.7580678 118.161945,28.5563212 118.604512,29.1533056 C119.047079,29.75029 119.659864,30.0504878 120.436058,30.0504878 C121.212252,30.0504878 121.828441,29.75029 122.277817,29.1533056 C122.727193,28.5563212 122.95188,27.7580678 122.95188,26.7585454" id="Shape" fill="#003764" fill-rule="nonzero"></path><polygon id="Path" fill="#FFFFFF" fill-rule="nonzero" points="27.1838178 22.49096 27.1565829 22.4227332 27.119135 22.3579177 18.7341953 11.3017671 18.6150427 11.1550795 18.4788683 11.0220373 18.3392895 10.899229 18.1860933 10.7866548 18.022684 10.6911373 17.8592747 10.6058539 17.6822479 10.5376271 17.5018168 10.4796343 17.3179814 10.4421096 17.1273372 10.4148189 16.9400974 10.4045848 16.7528575 10.4148189 16.5656177 10.4352869 16.3783779 10.476223 16.1979468 10.5239817 16.0209201 10.5956198 15.8541064 10.6809033 15.6941015 10.7764208 15.5375009 10.8821723 15.3911134 11.0049806 15.2583433 11.1414341 15.1391907 11.2847104 15.0268468 11.4382206 14.9315247 11.6019649 14.8498201 11.7725319 14.7817329 11.9499215 14.7272631 12.1307225 14.6898151 12.3149348 14.6659846 12.5025585 14.6591759 12.6935935 14.669389 12.8812172 14.6932195 13.0688408 14.7306675 13.2530531 14.7885416 13.4338541 14.8600332 13.6078324 14.9417378 13.7783994 15.0438686 13.9387323 15.1494038 14.0922426 15.2787695 14.2355189 15.4115395 14.3651498 15.557927 14.487958 26.5880548 22.8900866 26.6493332 22.9276114 26.7174204 22.9549021 26.7923164 22.9685475 26.8604036 22.9651361 26.9352995 22.9480794 26.9999824 22.9207887 27.0612608 22.883264 27.1089219 22.8286825 27.1497742 22.7706898 27.1804135 22.702463 27.1940309 22.6342362 27.1940309 22.5591867"></polygon><polygon id="Path" fill="#FFFFFF" fill-rule="nonzero" points="30.9252099 18.7384867 30.9013794 18.6736713 30.8639314 18.6122672 22.4755874 7.55270519 22.3564348 7.40942894 22.2236647 7.27297537 22.0840859 7.15016716 21.9308897 7.03759296 21.7674804 6.93866412 21.6006668 6.85338064 21.42364 6.78515385 21.2432089 6.73057242 21.0559691 6.68963635 20.8721336 6.66575698 20.6814895 6.6589343 20.4942496 6.66575698 20.3104142 6.68622501 20.11977 6.72374974 19.9393389 6.77833117 19.7623121 6.84655796 19.5954985 6.9284301 19.4320892 7.0239476 19.278893 7.1365218 19.1325055 7.25933001 19.0031398 7.38896091 18.8805828 7.5356485 18.7682389 7.68915876 18.6729168 7.84949171 18.5912122 8.02005868 18.523125 8.19744832 18.4686552 8.3782493 18.4312072 8.56587296 18.4107811 8.75008528 18.4039723 8.94112028 18.4107811 9.12874394 18.4346116 9.31636761 18.4754639 9.50057993 18.5299337 9.68138091 18.5980209 9.85877055 18.6831299 10.0293375 18.7852607 10.1896705 18.8942002 10.3431807 19.0167572 10.486457 19.1529316 10.6194992 19.2993191 10.7354848 30.3328512 19.1410248 30.3941297 19.1819608 30.4588125 19.2024289 30.5337085 19.2160742 30.6052 19.2160742 30.6732872 19.1990175 30.7379701 19.1717268 30.8026529 19.1307907 30.850314 19.0796207 30.8945707 19.0182166 30.9218055 18.9534011 30.935423 18.8851743 30.935423 18.8101249"></polygon><polygon id="Path" fill="#FFFFFF" fill-rule="nonzero" points="34.6700064 14.9894248 34.6427715 14.9211981 34.6019191 14.859794 26.2203838 3.80705465 26.0978269 3.66036706 25.9650568 3.52391349 25.8220737 3.39769393 25.6688774 3.29194242 25.5088725 3.18960224 25.3386545 3.10431876 25.1684365 3.03609197 24.9880054 2.9780992 24.8007655 2.94057447 24.6135257 2.91669509 24.4262859 2.90646108 24.2390461 2.91328376 24.0484019 2.93716313 23.8645664 2.97468786 23.6841353 3.02926929 23.5071086 3.09749608 23.3402949 3.17936822 23.1734813 3.27488572 23.020285 3.38745992 22.8773019 3.50685679 22.7445319 3.63989902 22.6219749 3.78658661 22.5130353 3.94009688 22.4177133 4.10384117 22.3326042 4.27099679 22.264517 4.44838644 22.2134516 4.62918742 22.1760037 4.81339974 22.1521731 5.00443474 22.1453644 5.1920584 22.1521731 5.37968206 22.179408 5.56730572 22.216856 5.75492939 22.2747301 5.93573037 22.3428173 6.11312001 22.4279263 6.2768643 22.5232484 6.43719724 22.6355923 6.59411885 22.7581493 6.73398376 22.8943237 6.87043733 23.0407112 6.98983421 34.0742433 15.3885515 34.1355218 15.4294876 34.203609 15.4567783 34.2716962 15.4670123 34.3465921 15.4670123 34.4146793 15.4499557 34.4827665 15.4192536 34.5406407 15.3817289 34.5951104 15.3339701 34.6325584 15.2691547 34.6631976 15.2043392 34.6768151 15.1327011 34.6802194 15.0644743"></polygon><polygon id="Path" fill="#FFFFFF" fill-rule="nonzero" points="39.5041981 16.7872007 39.4803676 16.599577 39.4429196 16.4119533 39.3884499 16.2311524 39.323767 16.057174 39.238658 15.8866071 39.1433359 15.7262741 39.0343964 15.5693525 38.9118394 15.4260763 38.7790694 15.293034 38.6360862 15.1702258 38.48289 15.0576516 38.3160763 14.9621341 38.1492627 14.880262 37.9722359 14.8120352 37.7918048 14.7574538 37.6079694 14.719929 37.4173252 14.6960497 37.2300854 14.6926383 37.0428456 14.699461 36.8522014 14.7233404 36.6683659 14.7676878 36.4879348 14.8188579 36.3177168 14.890496 36.1474988 14.9757795 35.9874938 15.0747083 35.8308932 15.1872825 35.6913145 15.3100907 35.5551401 15.443133 35.4359874 15.5898206 27.0544521 26.6459712 27.0135998 26.7073753 26.9863649 26.7721908 26.9761518 26.8472402 26.9761518 26.9188784 26.9897693 26.9905165 27.0204085 27.0553319 27.0612608 27.116736 27.1157306 27.1679061 27.1702004 27.2088422 27.2382876 27.2361329 27.3097792 27.2497783 27.3846751 27.2497783 27.4527623 27.2395442 27.5208495 27.2122535 27.582128 27.1781401 38.6156601 18.7726001 38.7586432 18.6532032 38.898222 18.5235724 39.0207789 18.3768848 39.1297185 18.2267858 39.2284449 18.0630416 39.3101496 17.8958859 39.3816411 17.7184963 39.4395153 17.5376953 39.4769632 17.353483 39.5007938 17.1658593 39.5110068 16.9748243"></polygon><polygon id="Path" fill="#FFFFFF" fill-rule="nonzero" points="43.2455902 20.5396739 43.2217597 20.3520502 43.1877161 20.1644266 43.1332463 19.9802142 43.0651591 19.8062359 42.9834545 19.635669 42.884728 19.4719247 42.7757885 19.3184144 42.6532315 19.1751382 42.5170571 19.0420959 42.3774783 18.9192877 42.2242821 18.8101249 42.0608728 18.7146074 41.8872504 18.6293239 41.7170324 18.5610971 41.5331969 18.5065157 41.3459571 18.4724023 41.1621216 18.4485229 40.9714775 18.4417002 40.7842376 18.4485229 40.5969978 18.4758136 40.4131624 18.5133383 40.2327312 18.5679198 40.0557045 18.6429692 39.8888908 18.7248414 39.7254815 18.8237702 39.5722853 18.9329331 39.4293022 19.0557413 39.2999365 19.1921949 39.1773795 19.3388824 30.7924399 30.3950331 30.7549919 30.4564372 30.7311614 30.524664 30.7175439 30.5963021 30.7209483 30.6679402 30.7345657 30.736167 30.7618006 30.8078051 30.8060573 30.8657979 30.8537183 30.9135567 30.9115925 30.9579041 30.983084 30.9851948 31.0511712 30.9988401 31.1226628 31.0022515 31.1975587 30.9886061 31.2622416 30.9647268 31.3235201 30.927202 42.3570521 22.5250733 42.5034396 22.4022651 42.6362097 22.2726342 42.7587667 22.129358 42.8711106 21.9758477 42.9664327 21.8121034 43.0515417 21.6449478 43.1264376 21.4675582 43.177503 21.2867572 43.2183553 21.1025449 43.2455902 20.9149212 43.2523989 20.7272975"></polygon><polygon id="Path" fill="#FFFFFF" fill-rule="nonzero" points="46.9903867 24.2887358 46.9665561 24.0977008 46.9291082 23.9134884 46.8746384 23.7326875 46.8031468 23.5552978 46.7248465 23.3881422 46.6295244 23.2243979 46.5171806 23.0708876 46.3980279 22.9242 46.2618535 22.7911578 46.1188704 22.6717609 45.9622698 22.5591867 45.8022649 22.4636692 45.6320468 22.3783858 45.4550201 22.3135703 45.274589 22.2589889 45.0907535 22.2214641 44.9035137 22.1975848 44.7162739 22.1907621 44.5256297 22.2009961 44.3383899 22.2248755 44.1545544 22.2624002 43.9741233 22.320393 43.7970966 22.3886198 43.6302829 22.4739033 43.4668736 22.5694208 43.3170818 22.681995 43.1706943 22.8082145 43.0413286 22.9446681 42.922176 23.0913557 34.5372363 34.144095 34.4997883 34.2054991 34.4725534 34.2737259 34.4623404 34.3419527 34.4623404 34.4170021 34.4759578 34.4886402 34.5031927 34.5534557 34.544045 34.6182711 34.5951104 34.6660299 34.6563889 34.706966 34.7210718 34.7342567 34.7959677 34.7513134 34.8640549 34.7513134 34.9389508 34.7410793 35.0036337 34.7137886 35.0649122 34.6728526 46.0984442 26.2741352 46.2448317 26.1547384 46.3776018 26.0182848 46.5001588 25.8784199 46.6125026 25.7214983 46.7112291 25.5611653 46.7963381 25.3905983 46.8678297 25.2200314 46.9188951 25.0392304 46.9631518 24.8516067 46.9835779 24.6639831 46.993791 24.4763594"></polygon><polygon id="Path" fill="#FFFFFF" fill-rule="nonzero" points="35.2249171 37.1187828 35.2010866 36.9277478 35.1602342 36.7435355 35.1057645 36.5627345 35.0376773 36.3921676 34.9525683 36.2216006 34.8538418 36.0612677 34.7414979 35.904346 34.6189409 35.7644811 34.4827665 35.6314389 34.3397834 35.5086307 23.302847 27.1099134 23.2415685 27.0689773 23.1768856 27.0416866 23.1053941 27.0314525 23.0304981 27.0348639 22.9624109 27.0519206 22.8977281 27.0792113 22.8364496 27.116736 22.7853842 27.1713175 22.7445319 27.2293102 22.717297 27.297537 22.7002752 27.3657638 22.6968708 27.4408133 22.7138926 27.50904 22.7343188 27.5772668 22.7751711 27.6386709 31.1635151 38.6948216 31.2826677 38.8415092 31.4120334 38.9779627 31.5550166 39.100771 31.7082128 39.2133452 31.8682177 39.3088627 32.0384358 39.3941461 32.2154625 39.4657843 32.3958936 39.5203657 32.5797291 39.5578904 32.7635645 39.5851811 32.9542087 39.5920038 33.1448529 39.5851811 33.3286884 39.5613018 33.5159282 39.523777 33.6963593 39.4726069 33.873386 39.4043802 34.043604 39.3190967 34.203609 39.2235792 34.3568052 39.1144163 34.5031927 38.9916081 34.6325584 38.8585659 34.7585197 38.7152896 34.8674593 38.5617794 34.9627813 38.3946237 35.044486 38.2274681 35.1125732 38.0500785 35.167043 37.8692775 35.2078953 37.6850652 35.2249171 37.4940302 35.2317258 37.3064065"></polygon><polygon id="Path" fill="#FFFFFF" fill-rule="nonzero" points="19.5648592 30.8555639 19.5035808 30.8180392 19.4320892 30.7941598 19.364002 30.7839258 19.2925104 30.7839258 19.2210188 30.7975711 19.1529316 30.8248618 19.0950575 30.8692093 19.0405877 30.916968 19.0031398 30.9817834 18.9725005 31.0465989 18.9622874 31.1148257 18.9554787 31.1864638 18.9690962 31.2615133 18.9963311 31.3263287 19.033779 31.3877328 27.4187187 42.4438835 27.5412757 42.5905711 27.6706414 42.7270246 27.8136245 42.8498328 27.9668207 42.9589957 28.1268257 43.0613359 28.2970437 43.143208 28.4706661 43.2148461 28.6510972 43.2694276 28.8349326 43.3103636 29.0221724 43.334243 29.2094123 43.3410657 29.4000564 43.3376544 29.5872963 43.313775 29.7711317 43.2762503 29.9515628 43.2216688 30.1285896 43.153442 30.2988076 43.0715699 30.4622169 42.9760524 30.6154131 42.8634782 30.7583962 42.74067 30.8945707 42.6110391 31.0171276 42.4643515 31.1226628 42.3108412 31.2213893 42.147097 31.3030939 41.9799413 31.3711811 41.8025517 31.4222465 41.6217507 31.4630988 41.4375384 31.483525 41.2465034 31.4937381 41.0588797 31.483525 40.8712561 31.4562901 40.6802211 31.4188422 40.4960087 31.360968 40.3152078 31.2928808 40.1378181 31.2077718 39.9706625 31.1124497 39.8069182 31.0001058 39.6568193 30.8775489 39.5101317 30.7447788 39.3805008 30.5983913 39.2611039"></polygon><polygon id="Path" fill="#FFFFFF" fill-rule="nonzero" points="27.7387286 44.6203179 27.7183024 44.4292829 27.6740457 44.2450706 27.619576 44.0642696 27.5514887 43.8902913 27.4663797 43.7231357 27.3676533 43.5593914 27.2553094 43.4058811 27.1327524 43.2626049 26.9999824 43.1295627 26.8535949 43.0101658 15.8200628 34.6080371 15.7587843 34.5705124 15.6941015 34.5432217 15.6192055 34.5329877 15.5511183 34.5329877 15.4762224 34.546633 15.4115395 34.5773351 15.3502611 34.6182711 15.2991957 34.6660299 15.2583433 34.727434 15.2311084 34.7922494 15.217491 34.8672989 15.217491 34.938937 15.2277041 35.0105752 15.254939 35.0788019 15.2923869 35.140206 23.6773266 46.1929454 23.7964792 46.3396329 23.9292493 46.4726752 24.0722324 46.6023061 24.2220243 46.7114689 24.3820292 46.8069864 24.5522472 46.8922699 24.729274 46.963908 24.9097051 47.0219008 25.0935405 47.0594255 25.2807804 47.0833049 25.4714245 47.0935389 25.6586644 47.0867162 25.8459042 47.0628369 26.0297396 47.0253121 26.2101707 46.9707307 26.3871975 46.9059153 26.5574155 46.8206318 26.7174204 46.7251143 26.8706167 46.6125401 27.0170042 46.4931432 27.1531786 46.360101 27.2723312 46.2134134 27.3846751 46.0599031 27.4799972 45.8961588 27.5582975 45.7255919 27.629789 45.5482022 27.6808544 45.3708126 27.7217068 45.1831889 27.7455373 44.9955653 27.752346 44.8079416"></polygon><polygon id="Path" fill="#FFFFFF" fill-rule="nonzero" points="22.9147499 23.0811216 22.9011324 23.0094835 22.8738976 22.9446681 22.8330452 22.883264 22.7819798 22.8320939 22.7207013 22.7911578 22.6560185 22.7638671 22.5845269 22.7468104 22.5130353 22.7468104 22.4415438 22.7604558 22.3734566 22.7877465 22.3121781 22.8218599 11.278646 31.2273999 11.1322585 31.3467968 10.9994885 31.4764276 10.8769315 31.6231152 10.7645876 31.7732142 10.6658611 31.9335471 10.5841565 32.1041141 10.5126649 32.2815037 10.4581952 32.4623047 10.4207472 32.646517 10.3935123 32.8341407 10.3832992 33.0217643 10.3935123 33.2127993 10.4105341 33.400423 10.4513864 33.5846353 10.5024518 33.7654363 10.5739434 33.942826 10.6522437 34.1133929 10.7543745 34.2737259 10.8599097 34.4272361 10.9824667 34.5739237 11.1186411 34.7103773 11.2616242 34.8297742 11.4148204 34.938937 11.5748254 35.0344545 11.7484478 35.1163267 11.9220701 35.1879648 12.1025012 35.2391349 12.2897411 35.280071 12.4735765 35.300539 12.6676251 35.3039503 12.8548649 35.2971277 13.0387003 35.2766596 13.2225358 35.2323122 13.4029669 35.1777308 13.5799936 35.109504 13.7502117 35.0242205 13.9102166 34.9252917 14.0634128 34.8127175 14.206396 34.6899093 14.3357617 34.5534557 14.4583186 34.4101794 22.8432583 23.3506175 22.8807063 23.2892133 22.9045368 23.2243979 22.9215586 23.1527598"></polygon><polygon id="Path" fill="#FFFFFF" fill-rule="nonzero" points="19.1597404 19.3866412 19.1325055 19.3184144 19.0916531 19.2604216 19.0405877 19.2092516 18.9793092 19.1683155 18.9146264 19.1410248 18.8431348 19.1239681 18.7716433 19.1205567 18.7001517 19.1376134 18.6354688 19.1580815 18.5741904 19.1990175 7.53725393 27.5977349 7.3942708 27.7205431 7.25809638 27.8535853 7.13553941 27.9968616 7.02319551 28.1503718 6.92446906 28.3107048 6.83936005 28.4812717 6.77127284 28.6586614 6.71680308 28.8394624 6.67595075 29.0236747 6.65212023 29.207887 6.63850279 29.3955107 6.64871587 29.589957 6.67254639 29.7741693 6.70999436 29.9583817 6.76446412 30.142594 6.83255133 30.3165723 6.91425598 30.4905506 7.00957807 30.6508835 7.1185176 30.8043938 7.23767022 30.9476701 7.37384463 31.0807123 7.52023213 31.2035205 7.67342835 31.3126834 7.83343329 31.4082009 8.00365131 31.4934843 8.18067805 31.5617111 8.36110915 31.6162926 8.54494461 31.6504059 8.73218444 31.6742853 8.92282862 31.681108 9.11006844 31.6742853 9.29730826 31.6469946 9.48114372 31.6094699 9.66157483 31.5548884 9.83860157 31.4832503 10.0088196 31.3979668 10.1688245 31.3024493 10.3186164 31.1898751 10.4615995 31.0670669 10.5943696 30.9306134 10.7135222 30.7839258 19.0984619 19.7277751 19.1359098 19.666371 19.1631447 19.5981442 19.1767622 19.5299174 19.1767622 19.454868"></polygon><polygon id="Path" fill="#FFFFFF" fill-rule="nonzero" points="15.4183483 15.5079484 15.387709 15.443133 15.3502611 15.3851402 15.2957913 15.3305588 15.2379172 15.293034 15.16983 15.262332 15.1017428 15.2486866 15.0268468 15.2486866 14.9587596 15.2589207 14.8906724 15.2862114 14.8293939 15.3237361 3.79586185 23.7258648 3.64947435 23.8452616 3.51329994 23.9783039 3.39074296 24.1215801 3.27839907 24.2750904 3.18307698 24.4388347 3.09796797 24.6059903 3.02988076 24.7799686 2.97200663 24.9607696 2.93455867 25.1449819 2.90732378 25.3360169 2.90051506 25.5236406 2.90732378 25.7112642 2.93115431 25.8988879 2.96860227 26.0831002 3.02307204 26.2673125 3.08775489 26.4412909 3.1728639 26.6118578 3.26818599 26.7790134 3.37712552 26.9325237 3.49968249 27.0723886 3.63245255 27.2088422 3.77543569 27.3316504 3.92863191 27.4408133 4.09544557 27.5363308 4.26225923 27.6216142 4.43928597 27.6864297 4.61971707 27.7410111 4.80355253 27.7785359 4.99419671 27.8024152 5.18143653 27.8092379 5.36867636 27.7990039 5.55591618 27.7751245 5.73975164 27.7341884 5.9235871 27.679607 6.09380512 27.6079689 6.26402314 27.5226854 6.42402808 27.4271679 6.5772243 27.3145937 6.72020744 27.1917855 6.85638185 27.0553319 6.97553447 26.9120557 15.3570698 15.855905 15.3979221 15.7945009 15.425157 15.7262741 15.4353701 15.654636 15.4353701 15.5829979"></polygon><polygon id="Path" fill="#003764" points="64.4649686 35.09927 64.4649686 41.805963 64.4547555 42.2050897 64.4479468 42.5666917 64.4343294 42.8941803 64.4139032 43.1807328 64.3866683 43.4263492 64.3560291 43.6344409 64.2845375 43.9141707 64.1517674 44.1836665 63.9713363 44.4258716 63.7364355 44.6476087 63.6887744 44.6851334 63.4640866 44.821587 63.2087596 44.9307498 62.9125803 45.0023879 62.5823573 45.0501467 62.2146864 45.063792 62.0717032 45.0603807 61.7244585 45.03309 61.4146617 44.9750972 61.125291 44.8932251 60.8733684 44.7738282 60.6452762 44.6237293 60.5091018 44.5111551 60.3014358 44.2860067 60.1312178 44.0403903 60.0018521 43.7674831 59.9167431 43.4638739 59.90653 43.4195265 59.8826995 43.2284915 59.8622733 42.9896978 59.8486559 42.6929112 59.8350385 42.348366 59.8282297 41.9492393 59.8282297 41.4887085 59.8282297 35.09927 57.4451775 35.09927 57.4451775 41.393191 57.4519862 41.6456301 57.4553905 42.0311114 57.4656036 42.3995361 57.4826254 42.7474927 57.4996472 43.0715699 57.5268821 43.3785904 57.5575213 43.6617316 57.5949693 43.9244047 57.6358216 44.1700212 57.6800783 44.3883469 57.7413568 44.6032612 57.846892 44.8829911 57.9830664 45.1627209 58.1498801 45.4322167 58.3507373 45.6914785 58.4562725 45.817698 58.6639385 46.0326124 58.895435 46.2236474 59.1473577 46.401037 59.4299196 46.56137 59.7329076 46.7080576 59.8078036 46.742171 60.0393001 46.8274545 60.2878184 46.9025039 60.5601672 46.963908 60.8597509 47.0116668 61.1797608 47.0526029 61.5270056 47.0764822 61.8946765 47.0969503 62.2861779 47.1003616 62.4427785 47.1003616 62.8002364 47.0901276 63.1440768 47.0628369 63.4606823 47.0253121 63.760266 46.974142 64.0462323 46.9093266 64.3049637 46.8308658 64.553482 46.7387596 64.7032738 46.6739442 64.9960488 46.5272566 65.2649933 46.3669237 65.516916 46.189534 65.7381994 45.9916763 65.942461 45.7801733 66.0037395 45.7051238 66.1807662 45.4629187 66.3305581 45.2002456 66.4565194 44.9205158 66.565459 44.6203179 66.650568 44.299652 66.6709941 44.1802552 66.7050377 43.9687521 66.735677 43.7299584 66.7629119 43.4638739 66.7867424 43.1670874 66.8071686 42.8498328 66.820786 42.5018762 66.8344034 42.1300403 66.8378078 41.7240909 66.8412122 41.2976735 66.8412122 35.09927"></polygon><polygon id="Path" fill="#003764" fill-rule="nonzero" points="64.4649686 35.09927 64.4649686 41.805963 64.4547555 42.2050897 64.4479468 42.5666917 64.4343294 42.8941803 64.4139032 43.1807328 64.3866683 43.4263492 64.3560291 43.6344409 64.2845375 43.9141707 64.1517674 44.1836665 63.9713363 44.4258716 63.7364355 44.6476087 63.6887744 44.6851334 63.4640866 44.821587 63.2087596 44.9307498 62.9125803 45.0023879 62.5823573 45.0501467 62.2146864 45.063792 62.0717032 45.0603807 61.7244585 45.03309 61.4146617 44.9750972 61.125291 44.8932251 60.8733684 44.7738282 60.6452762 44.6237293 60.5091018 44.5111551 60.3014358 44.2860067 60.1312178 44.0403903 60.0018521 43.7674831 59.9167431 43.4638739 59.90653 43.4195265 59.8826995 43.2284915 59.8622733 42.9896978 59.8486559 42.6929112 59.8350385 42.348366 59.8282297 41.9492393 59.8282297 41.4887085 59.8282297 35.09927 57.4451775 35.09927 57.4451775 41.393191 57.4519862 41.6456301 57.4553905 42.0311114 57.4656036 42.3995361 57.4826254 42.7474927 57.4996472 43.0715699 57.5268821 43.3785904 57.5575213 43.6617316 57.5949693 43.9244047 57.6358216 44.1700212 57.6800783 44.3883469 57.7413568 44.6032612 57.846892 44.8829911 57.9830664 45.1627209 58.1498801 45.4322167 58.3507373 45.6914785 58.4562725 45.817698 58.6639385 46.0326124 58.895435 46.2236474 59.1473577 46.401037 59.4299196 46.56137 59.7329076 46.7080576 59.8078036 46.742171 60.0393001 46.8274545 60.2878184 46.9025039 60.5601672 46.963908 60.8597509 47.0116668 61.1797608 47.0526029 61.5270056 47.0764822 61.8946765 47.0969503 62.2861779 47.1003616 62.4427785 47.1003616 62.8002364 47.0901276 63.1440768 47.0628369 63.4606823 47.0253121 63.760266 46.974142 64.0462323 46.9093266 64.3049637 46.8308658 64.553482 46.7387596 64.7032738 46.6739442 64.9960488 46.5272566 65.2649933 46.3669237 65.516916 46.189534 65.7381994 45.9916763 65.942461 45.7801733 66.0037395 45.7051238 66.1807662 45.4629187 66.3305581 45.2002456 66.4565194 44.9205158 66.565459 44.6203179 66.650568 44.299652 66.6709941 44.1802552 66.7050377 43.9687521 66.735677 43.7299584 66.7629119 43.4638739 66.7867424 43.1670874 66.8071686 42.8498328 66.820786 42.5018762 66.8344034 42.1300403 66.8378078 41.7240909 66.8412122 41.2976735 66.8412122 35.09927"></polygon><polyline id="Path" fill="#003764" points="76.24746 35.09927 68.1723171 35.09927 68.1723171 46.9025039 70.551965 46.9025039 70.551965 41.8878352 75.4678614 41.8878352 75.4678614 39.8887903 70.551965 39.8887903 70.551965 37.0949035 76.24746 37.0949035"></polyline><polyline id="Path" fill="#003764" fill-rule="nonzero" points="76.24746 35.09927 68.1723171 35.09927 68.1723171 46.9025039 70.551965 46.9025039 70.551965 41.8878352 75.4678614 41.8878352 75.4678614 39.8887903 70.551965 39.8887903 70.551965 37.0949035 76.24746 37.0949035"></polyline><polygon id="Path" fill="#003764" points="85.4460418 35.09927 82.5591441 43.8322986 79.5803288 35.09927 77.003228 35.09927 81.2110174 46.9025039 83.7506703 46.9025039 87.9686728 35.09927"></polygon><polygon id="Path" fill="#003764" fill-rule="nonzero" points="85.4460418 35.09927 82.5591441 43.8322986 79.5803288 35.09927 77.003228 35.09927 81.2110174 46.9025039 83.7506703 46.9025039 87.9686728 35.09927"></polygon></g></g></svg>