<svg xmlns="http://www.w3.org/2000/svg" id="Capa_2" viewBox="0 0 475.19 466.62"><defs><style>.cls-1{fill:#fff;}</style></defs><g id="Capa_1-2"><path class="cls-1" d="M88.95,90.65h64.12v20.09h-42.1v27.32h39.21v18.8h-39.21v47.89h-22.01v-114.09Z"></path><path class="cls-1" d="M162.07,147.69c0-35.03,26.84-58.65,58.65-58.65s58.81,23.62,58.81,58.65-27,58.65-58.81,58.65-58.65-23.62-58.65-58.65ZM220.72,185.46c19.61,0,36.16-14.78,36.16-37.76s-16.55-37.76-36.16-37.76-36.16,14.78-36.16,37.76,16.71,37.76,36.16,37.76Z"></path><path class="cls-1" d="M333.21,166.98h-17.03v37.76h-22.01v-114.09h40.01c24.26,0,40.33,15.43,40.33,38.73,0,16.39-7.87,28.28-21.05,33.91l26.68,41.46h-23.46l-23.46-37.76ZM331.93,147.85c12.05,0,20.25-5.14,20.25-18.48s-8.2-18.48-20.25-18.48h-15.75v36.96h15.75Z"></path><path class="cls-1" d="M112.41,258.29h-27.48v-20.25h76.97v20.25h-27.48v93.84h-22.01v-93.84Z"></path><path class="cls-1" d="M174.12,238.04h22.01v114.09h-22.01v-114.09Z"></path><path class="cls-1" d="M212.37,309.71v-71.67h22.01v71.67c0,17.84,10.93,23.3,21.05,23.3s21.05-5.46,21.05-23.3v-71.67h22.01v71.67c0,28.6-19.12,44.03-43.07,44.03s-43.07-15.43-43.07-44.03Z"></path><path class="cls-1" d="M310.72,325.3l17.84-8.19c3.21,8.84,10.45,16.71,22.01,16.71,9,0,16.71-4.66,16.71-14.62,0-8.36-4.98-12.05-16.55-16.71l-7.23-2.73c-15.59-6.27-28.44-14.94-28.44-32.3,0-19.12,15.91-31.01,35.19-31.01s31.5,12.05,36.64,24.1l-16.39,9.16c-4.82-9.16-11.09-13.66-19.44-13.66s-14.3,4.02-14.3,11.57c0,5.95,3.37,10.61,15.91,15.43l7.71,3.06c19.93,8.03,29.89,17.03,29.89,33.26,0,23.14-20.25,34.39-39.37,34.39s-36.16-11.73-40.17-28.44Z"></path><path class="cls-1" d="M403.92,451.92v-21.69h47V21.69h-47V0h71.27v451.92h-71.27Z"></path><path class="cls-1" d="M71.27,5.16v21.69H24.27v408.54h47s0,21.69,0,21.69H0V5.16h71.27Z"></path><path class="cls-1" d="M122.02,453.42c-.84,1.13-1.94,2.05-3.29,2.78-1.35.72-2.93,1.09-4.73,1.09-2.24,0-4.26-.58-6.06-1.73-1.8-1.15-3.22-2.8-4.26-4.95s-1.56-4.67-1.56-7.55.53-5.48,1.59-7.75,2.54-4.02,4.44-5.28c1.9-1.26,4.06-1.89,6.47-1.89s4.49.57,6.24,1.7c1.68,1.14,2.52,2.52,2.52,4.14,0,.94-.27,1.68-.8,2.21s-1.21.8-2.03.8-1.54-.24-2.11-.72c-.57-.48-.85-1.14-.85-1.98,0-.77.21-1.41.64-1.93s.97-.86,1.61-1.04c-.35-.65-.99-1.18-1.91-1.61-.93-.43-1.9-.64-2.91-.64-1.31,0-2.54.42-3.7,1.26s-2.11,2.24-2.86,4.19c-.75,1.96-1.13,4.53-1.13,7.71,0,4.46.72,7.69,2.15,9.71,1.43,2.02,3.29,3.03,5.58,3.03,1.52,0,2.97-.44,4.36-1.34s2.53-2.29,3.42-4.19l1.02.37c-.4,1.28-1.02,2.48-1.86,3.6Z"></path><path class="cls-1" d="M149.14,429.69c1.83,1.03,3.27,2.63,4.33,4.81,1.06,2.18,1.59,4.92,1.59,8.25s-.53,6.06-1.59,8.23-2.5,3.76-4.33,4.78c-1.83,1.02-3.92,1.53-6.28,1.53s-4.45-.51-6.28-1.53c-1.83-1.02-3.27-2.62-4.33-4.78s-1.59-4.91-1.59-8.23.53-6.07,1.59-8.25c1.06-2.17,2.5-3.78,4.33-4.81s3.92-1.55,6.28-1.55,4.45.52,6.28,1.55ZM137.76,432.52c-1.25,2.2-1.87,5.61-1.87,10.22s.62,7.99,1.87,10.18c1.25,2.19,2.95,3.29,5.1,3.29s3.85-1.1,5.1-3.29c1.25-2.19,1.87-5.59,1.87-10.18s-.63-8.02-1.87-10.22-2.95-3.3-5.1-3.3-3.85,1.1-5.1,3.3Z"></path><path class="cls-1" d="M174.18,429.67c1.6-1.02,3.4-1.53,5.41-1.53,2.5,0,4.39.67,5.69,2.02.66.73,1.14,1.64,1.43,2.71.29,1.07.43,2.52.43,4.34v14.34c0,1,.13,1.77.41,2.33.27.56.7.95,1.28,1.18s1.38.34,2.4.34v1.13c-3.29-.14-5.44-.21-6.45-.21s-3,.07-6,.21v-1.13c.89,0,1.59-.11,2.08-.34s.87-.62,1.1-1.18c.24-.56.35-1.34.35-2.33v-15.52c0-1.29-.1-2.38-.3-3.25s-.62-1.58-1.26-2.12c-.64-.54-1.57-.81-2.79-.81-1.47,0-2.77.43-3.92,1.28-1.14.86-2.03,2.03-2.66,3.53-.63,1.49-.94,3.15-.94,4.97v11.93c0,1,.12,1.77.35,2.33.24.56.61.95,1.11,1.18.51.23,1.21.34,2.1.34v1.13c-3.01-.14-5.02-.21-6.03-.21s-3.16.07-6.45.21v-1.13c1.01,0,1.81-.11,2.4-.34s1.01-.62,1.28-1.18c.27-.56.41-1.34.41-2.33v-16.8c0-1.66-.3-2.87-.9-3.62-.6-.75-1.66-1.13-3.18-1.13v-1.13c1.12.1,2.23.16,3.33.16,2.27,0,4.13-.24,5.58-.73v6.32c.89-2.27,2.14-3.92,3.73-4.94Z"></path><path class="cls-1" d="M199.99,451.65c.49,1.43,1.24,2.55,2.25,3.36,1.01.8,2.38,1.21,4.09,1.21.79,0,1.54-.17,2.27-.51.72-.34,1.32-.89,1.8-1.65.47-.76.71-1.74.71-2.95,0-.98-.25-1.86-.75-2.63s-1.15-1.48-1.95-2.1c-.8-.62-1.93-1.38-3.38-2.29-1.77-1.12-3.12-2.04-4.05-2.75-.93-.72-1.73-1.59-2.37-2.62-.65-1.03-.97-2.25-.97-3.64,0-1.52.36-2.8,1.07-3.84.72-1.04,1.67-1.81,2.87-2.32,1.2-.51,2.53-.76,4-.76,1.26,0,2.39.2,3.39.6s1.82.86,2.45,1.36c.38.3.7.44.94.44.63,0,1.03-.79,1.21-2.36h1.23c-.14,1.75-.21,4.79-.21,9.12h-1.23c-.39-2.36-1.15-4.31-2.28-5.84-1.14-1.54-2.81-2.31-5.03-2.31-1.29,0-2.35.36-3.17,1.09-.82.72-1.23,1.73-1.23,3.03s.42,2.28,1.27,3.11c.85.83,1.87,1.62,3.07,2.37,1.2.75,2.05,1.29,2.56,1.63,1.64,1.07,2.97,2.01,3.97,2.84s1.82,1.78,2.44,2.86c.62,1.07.93,2.3.93,3.68,0,1.59-.42,2.95-1.25,4.08-.83,1.13-1.94,1.98-3.34,2.57-1.4.58-2.93.88-4.59.88s-3.01-.25-4.25-.76c-.7-.35-1.43-.83-2.2-1.44-.14-.14-.31-.21-.5-.21-.52,0-.89.67-1.1,2.02h-1.23c.14-2.04.21-5.62.21-10.72h1.23c.26,2.22.64,4.05,1.13,5.48Z"></path><path class="cls-1" d="M247.63,454.34c.6.74,1.66,1.11,3.19,1.11v1.13c-1.12-.1-2.23-.16-3.33-.16-2.31,0-4.17.25-5.58.76v-6.34c-.87,2.2-2.09,3.83-3.66,4.88-1.56,1.05-3.28,1.57-5.15,1.57-2.41,0-4.27-.68-5.58-2.04-.65-.7-1.11-1.61-1.38-2.73-.27-1.12-.41-2.55-.41-4.3v-13.47c0-1.66-.3-2.87-.89-3.62-.59-.75-1.65-1.13-3.17-1.13v-1.13c1.12.1,2.23.16,3.33.16,2.25,0,4.12-.24,5.58-.73v21.1c0,1.36.08,2.46.24,3.3s.53,1.52,1.13,2.06c.59.53,1.49.8,2.7.8,1.38,0,2.62-.43,3.72-1.28s1.97-2.03,2.6-3.51.94-3.13.94-4.93v-11.09c0-1.66-.3-2.87-.9-3.62-.6-.75-1.66-1.13-3.18-1.13v-1.13c1.12.1,2.23.16,3.33.16,2.27,0,4.13-.24,5.58-.73v22.44c0,1.66.3,2.86.9,3.6Z"></path><path class="cls-1" d="M264.91,453.88c.27.56.7.95,1.28,1.18s1.38.34,2.4.34v1.13c-3.29-.14-5.45-.21-6.5-.21s-3.22.07-6.5.21v-1.13c1.01,0,1.81-.11,2.4-.34s1.01-.62,1.28-1.18c.27-.56.41-1.34.41-2.33v-30.67c0-1.66-.3-2.86-.9-3.6s-1.66-1.11-3.18-1.11v-1.13c1.12.1,2.23.16,3.33.16,2.31,0,4.17-.25,5.58-.76v37.12c0,1,.13,1.77.41,2.33Z"></path><path class="cls-1" d="M290.35,428.93v1.08h-7.94v20.79c0,1.63.29,2.79.87,3.5.58.71,1.43,1.06,2.57,1.06s2.07-.44,2.86-1.34,1.45-2.36,1.99-4.4l1.05.26c-.87,4.95-3.2,7.42-6.97,7.42-1.21,0-2.2-.14-2.99-.43-.79-.29-1.49-.74-2.1-1.35-.77-.79-1.31-1.75-1.63-2.9s-.47-2.69-.47-4.63v-17.98h-5.16v-1.08h5.16v-8.2c2.01-.05,3.62-.31,4.82-.76v8.96h7.94Z"></path><path class="cls-1" d="M304.47,453.88c.27.56.7.95,1.28,1.18s1.38.34,2.4.34v1.13c-3.29-.14-5.45-.21-6.5-.21s-3.22.07-6.5.21v-1.13c1.01,0,1.81-.11,2.4-.34s1.01-.62,1.28-1.18c.27-.56.41-1.34.41-2.33v-16.8c0-1.66-.3-2.87-.9-3.62-.6-.75-1.66-1.13-3.18-1.13v-1.13c1.12.1,2.23.16,3.33.16,2.27,0,4.13-.24,5.58-.73v23.25c0,1,.13,1.77.41,2.33ZM302.99,415.93c.52.31.94.73,1.26,1.26s.47,1.09.47,1.7-.16,1.18-.47,1.72c-.31.53-.73.95-1.26,1.26-.52.31-1.09.46-1.7.46s-1.18-.15-1.72-.46c-.53-.31-.95-.73-1.26-1.26-.31-.53-.46-1.11-.46-1.72s.15-1.18.46-1.7.72-.94,1.26-1.26,1.11-.47,1.72-.47,1.18.16,1.7.47Z"></path><path class="cls-1" d="M325.94,429.67c1.6-1.02,3.4-1.53,5.41-1.53,2.5,0,4.39.67,5.69,2.02.66.73,1.14,1.64,1.43,2.71.29,1.07.43,2.52.43,4.34v14.34c0,1,.13,1.77.41,2.33.27.56.7.95,1.28,1.18s1.38.34,2.4.34v1.13c-3.29-.14-5.44-.21-6.45-.21s-3,.07-6,.21v-1.13c.89,0,1.59-.11,2.08-.34s.87-.62,1.1-1.18c.24-.56.35-1.34.35-2.33v-15.52c0-1.29-.1-2.38-.3-3.25s-.62-1.58-1.26-2.12c-.64-.54-1.57-.81-2.79-.81-1.47,0-2.77.43-3.92,1.28-1.14.86-2.03,2.03-2.66,3.53-.63,1.49-.94,3.15-.94,4.97v11.93c0,1,.12,1.77.35,2.33.24.56.61.95,1.11,1.18.51.23,1.21.34,2.1.34v1.13c-3.01-.14-5.02-.21-6.03-.21s-3.16.07-6.45.21v-1.13c1.01,0,1.81-.11,2.4-.34s1.01-.62,1.28-1.18c.27-.56.41-1.34.41-2.33v-16.8c0-1.66-.3-2.87-.9-3.62-.6-.75-1.66-1.13-3.18-1.13v-1.13c1.12.1,2.23.16,3.33.16,2.27,0,4.13-.24,5.58-.73v6.32c.89-2.27,2.14-3.92,3.73-4.94Z"></path><path class="cls-1" d="M371.32,451.81c1.16.79,1.74,2.05,1.74,3.8s-.55,3.42-1.66,5.11c-1.11,1.7-2.8,3.1-5.06,4.22-2.26,1.12-5.03,1.68-8.3,1.68-1.87,0-3.63-.19-5.28-.56-1.65-.38-2.98-.93-4-1.68-1.01-.74-1.52-1.64-1.52-2.69,0-1.22.64-2.41,1.93-3.55,1.28-1.15,2.89-2.15,4.81-3h-.18c-1.36,0-2.6-.29-3.71-.86-1.11-.58-1.66-1.65-1.66-3.23,0-1.22.51-2.38,1.52-3.49,1.01-1.1,2.74-2.2,5.19-3.3-1.57-.61-2.8-1.55-3.67-2.83-.87-1.28-1.31-2.88-1.31-4.82,0-2.83.9-4.95,2.71-6.36s4.21-2.11,7.2-2.11c1.4,0,2.66.16,3.8.47.35-1.99.98-3.58,1.89-4.77.96-1.19,2.18-1.78,3.67-1.78.89,0,1.59.26,2.08.79s.75,1.2.75,2.02c0,.73-.24,1.34-.73,1.83-.49.49-1.1.73-1.83.73-.91,0-1.56-.28-1.97-.83-.4-.55-.7-1.4-.89-2.56-.52.47-1.01,1.35-1.44,2.62-.26.79-.45,1.53-.55,2.23,1.63.59,2.89,1.53,3.8,2.82.91,1.28,1.36,2.91,1.36,4.89s-.43,3.49-1.28,4.76c-.86,1.27-2.03,2.21-3.51,2.82-1.49.61-3.2.92-5.14.92-1.45,0-2.77-.17-3.96-.5-1.45.77-2.57,1.48-3.34,2.14-.78.66-1.17,1.36-1.17,2.11,0,.59.2,1.04.6,1.34.4.3,1.06.44,1.97.44h12.61c1.87,0,3.39.39,4.55,1.18ZM352.61,457.53c-.64,1-.96,2.01-.96,3.04,0,1.15.38,2.11,1.15,2.88.77.77,1.76,1.34,2.96,1.7,1.21.37,2.45.55,3.72.55,1.59,0,3.15-.28,4.67-.85s2.77-1.42,3.75-2.57c.98-1.15,1.47-2.53,1.47-4.16,0-.7-.12-1.26-.35-1.69s-.65-.75-1.24-.97c-.59-.22-1.42-.33-2.49-.33h-9.99c-1.15.59-2.05,1.39-2.69,2.39ZM356.43,430.8c-.83,1.14-1.24,3.08-1.24,5.81s.41,4.66,1.24,5.81,2.04,1.72,3.63,1.72,2.83-.57,3.66-1.7,1.25-3.07,1.25-5.82-.42-4.68-1.25-5.82c-.83-1.14-2.05-1.7-3.66-1.7s-2.8.57-3.63,1.72Z"></path></g></svg>