<?xml version="1.0" encoding="UTF-8" standalone="no"?>
<!DOCTYPE svg PUBLIC "-//W3C//DTD SVG 1.1//EN" "http://www.w3.org/Graphics/SVG/1.1/DTD/svg11.dtd">
<svg width="100%" height="100%" viewBox="0 0 1920 1080" version="1.1" xmlns="http://www.w3.org/2000/svg" xmlns:xlink="http://www.w3.org/1999/xlink" xml:space="preserve" xmlns:serif="http://www.serif.com/" style="fill-rule:evenodd;clip-rule:evenodd;stroke-linejoin:round;stroke-miterlimit:2;">
    <g transform="matrix(5.048318,0,0,5.048318,-4178.461984,-514.58472)">
        <g transform="matrix(50,0,0,50,1207.718591,265.415914)">
        </g>
        <text x="950.469px" y="265.416px" style="font-family:'PlayfairDisplay-Regular', 'Playfair Display';font-size:50px;fill:rgb(197,160,89);">HISP<tspan x="1059.469px 1089.969px 1125.269px 1141.819px " y="265.416px 265.416px 265.416px 265.416px ">ÁNIC</tspan>A</text>
    </g>
    <g transform="matrix(5.818149,0,0,5.818149,-4910.03383,-1009.285944)">
        <g transform="matrix(50,0,0,50,1173.618591,265.415914)">
        </g>
        <text x="950.469px" y="265.416px" style="font-family:'PlayfairDisplay-SemiBold', 'Playfair Display';font-weight:600;font-size:50px;fill:white;">ESCUELA</text>
    </g>
    <g transform="matrix(0.79267,0,0,0.79267,26.740752,273.794036)">
        <g transform="matrix(2.358533,0,0,2.358533,-926.871868,-139.153984)">
            <path d="M412.087,299.503C412.087,299.503 611.562,297.65 611.562,298.364C611.562,299.684 611.437,307.467 611.475,308.504C611.596,311.874 620.296,310.948 621.502,310.97C623.584,311.007 623.827,311.189 628.079,318.717C633.203,327.789 630.318,331.698 640.573,333.187C644.86,333.81 650.692,345.841 636.502,345.874C535.455,346.105 534.583,344.553 531.618,347.61C520.576,358.993 502.491,358.567 492.135,346.838C490.227,344.676 419.531,346.344 386.493,345.837C375.294,345.665 377.548,333.989 384.45,333.137C389.741,332.485 389.393,331.183 398.894,313.726C401.762,308.456 411.537,313.288 411.948,309.932C412.443,305.877 412.089,299.824 412.087,299.503Z" style="fill:rgb(197,160,89);"/>
        </g>
        <g transform="matrix(2.358533,0,0,2.358533,-926.871868,-139.153984)">
            <path d="M528.484,345.486C525.207,348.954 508.621,359.936 494.419,343.575C492.351,341.192 447.789,342.662 386.502,342.356C382.071,342.334 380.579,336.855 387.508,336.723C394.548,336.589 494.98,336.398 496.431,336.871C499.283,337.802 500.676,349.67 518.453,345.343C524.467,343.88 526.286,336.708 528.514,336.645C557.303,335.837 626.02,336.623 634.498,336.721C645.221,336.843 639.962,341.961 639.41,342.16C637.208,342.957 533.049,341.48 530.762,342.937C530.532,343.084 530.594,343.126 528.484,345.486Z" style="fill:rgb(10,11,13);"/>
        </g>
        <g transform="matrix(2.358533,0,0,2.358533,-926.871868,-139.153984)">
            <path d="M521.59,313.575C523.891,310.729 537.319,294.118 565.605,301.085C593.144,307.868 592.316,311.16 620.427,314.833C622.812,315.145 625.925,321.895 623.44,322.002C599.282,323.045 567.997,302.365 544.478,307.406C518.131,313.053 517.897,332.619 515.531,332.793C513.923,332.911 510.888,330.942 521.59,313.575Z" style="fill:rgb(8,10,15);"/>
        </g>
        <g transform="matrix(2.358533,0,0,2.358533,-926.871868,-139.153984)">
            <path d="M506.304,319.6C511.198,332.029 509.47,332.901 508.417,332.743C506.511,332.457 502.322,299.71 458.736,308.096C454.425,308.926 449.729,310.158 444.611,311.863C402.151,326.013 398.255,322.929 399.882,319.681C404.195,311.073 408.044,317.5 435.419,308.256C457.022,300.962 488.588,288.436 506.304,319.6Z" style="fill:rgb(9,10,14);"/>
        </g>
        <g transform="matrix(2.358533,0,0,2.358533,-926.871868,-139.153984)">
            <path d="M498.818,322.251C499.308,322.959 507.42,334.691 501.433,332.693C496.052,330.898 491.901,307.983 448.556,321.675C426.083,328.774 418.332,332.756 395.453,332.899C391.452,332.924 395.294,325.665 398.505,325.592C442.019,324.606 464.905,299.83 490.219,314.996C495.179,317.967 494.894,318.171 498.818,322.251Z" style="fill:rgb(8,11,14);"/>
        </g>
        <g transform="matrix(2.358533,0,0,2.358533,-926.871868,-139.153984)">
            <path d="M564.465,318.667C533.543,313.523 530.222,326.506 523.375,332.35C520.172,335.084 518.209,329.43 527.782,319.789C551.81,295.593 583.482,325.093 625.499,325.576C629.02,325.616 633.119,333.136 628.526,332.938C595.544,331.52 596.654,325.907 564.465,318.667Z" style="fill:rgb(8,11,15);"/>
        </g>
        <g transform="matrix(2.358533,0,0,2.358533,-926.871868,-139.153984)">
            <path d="M530.529,329.529C543.855,318.167 556.995,319.259 577.639,326.081C591.638,330.708 604.373,333.64 596.5,333.498C534.542,332.382 534.429,334.326 529.248,332.874C526.876,332.209 529.174,331.609 530.529,329.529Z" style="fill:rgb(7,11,18);"/>
        </g>
        <g transform="matrix(2.358533,0,0,2.358533,-926.871868,-139.153984)">
            <path d="M491.472,327.538C491.876,327.886 497.679,332.886 495.29,333.001C490.394,333.237 448.659,332.177 428.508,333.458C418.495,334.094 430.805,331.385 446.428,326.271C465.464,320.04 475.998,317.727 491.472,327.538Z" style="fill:rgb(7,11,17);"/>
        </g>
        <g transform="matrix(2.358533,0,0,2.358533,-926.871868,-139.153984)">
            <path d="M503.839,340.09C500.544,336.686 503.22,336.546 503.505,336.531C521.87,335.566 522.896,337.025 522.092,338.284C516.818,346.547 505.153,340.744 503.839,340.09Z" style="fill:rgb(10,8,9);"/>
        </g>
        <path d="M197.484,567.829C195.745,567.42 200.226,565.193 132.707,570.516C66.584,575.729 47.656,570.407 45.108,567.234C44.385,566.334 50.554,130.91 50.064,129.686C49.65,128.652 41.77,128.627 47.365,126.281C49.689,125.306 79.486,113.018 79.674,112.941C87.307,109.826 87.933,110.284 89.715,106.597C91.209,103.506 92.397,103.775 91.857,100.434C91.036,95.361 97.802,95.047 96.799,100.571C96.099,104.423 97.7,104.042 99.359,107.564C100.925,110.889 122.435,118.004 140.341,125.838C147.219,128.848 139.043,128.78 138.47,129.477C138.144,129.874 137.91,129.956 138.074,205.502C138.083,209.34 139.4,208.881 142.503,208.875C188.496,208.777 189.404,209.475 190.093,207.428C190.485,206.265 189.495,121.79 190.636,120.639C191.117,120.155 196.028,120.15 196.499,120.15C199.845,120.146 373.264,120.143 373.563,120.161C375.612,120.287 375.102,122.66 375.129,141.501C375.221,207.295 374.56,208.277 376.422,208.765C377.929,209.16 418.814,208.896 422.5,208.873C426.069,208.85 427.234,209.092 427.229,205.503C427.221,200.618 427.254,131.307 427.226,130.533C427.131,127.864 421.367,129.583 422.549,127.52C423.298,126.212 456.762,113.128 463.354,110.161C466.329,108.822 466.148,107.022 467.864,104.772C470.993,100.667 466.2,97.629 470.528,96.597C475.277,95.465 472.954,102.426 473.615,103.433C477.584,109.489 478.117,109.733 478.722,110.011C483.484,112.196 514.257,124.562 517.355,125.807C523.444,128.253 516.113,128.857 515.656,129.591C514.879,130.841 515.485,549.27 515.297,574.494C515.274,577.553 417.521,572.476 412.488,571.58C398.359,569.066 399.906,566.862 367.574,566.485C368.495,546.761 367.959,414.441 367.905,401.486C367.889,397.667 364.489,399.257 354.495,399.025C345.778,398.823 345.828,399.023 245.498,398.959C241.821,398.957 199.791,398.93 199.535,398.978C197.226,399.415 197.72,400.484 197.695,421.5C197.586,510.766 197.658,565.171 197.484,567.829Z" style="fill:rgb(197,160,89);"/>
        <path d="M197.486,569.823C197.66,567.165 197.586,510.766 197.695,421.5C197.72,400.484 197.226,399.415 199.535,398.978C199.791,398.93 241.821,398.957 245.498,398.959C345.828,399.023 345.778,398.823 354.495,399.025C364.489,399.257 367.889,397.667 367.905,401.486C367.959,414.441 368.495,547.509 367.574,567.234C365.985,567.518 336.551,584.082 333.009,581.264C332.745,567.522 332.997,494.583 332.865,489.48C331.796,448.26 286.797,429.115 257.769,446.957C222.81,468.444 235.11,561.996 232.373,579.864C229.373,580.13 229.475,576.401 226.571,575.464C215.079,571.754 198.374,570.143 197.486,569.823Z" style="fill:rgb(9,10,14);"/>
        <path d="M232.879,571.931C232.168,571.613 231.928,504.394 234.486,490.152C237.964,470.788 244.967,454.825 257.769,446.957C286.797,429.115 331.796,448.26 332.865,489.48C332.997,494.583 332.724,552.743 332.988,566.485C332.368,566.517 281.512,616.76 280.891,616.791C280.522,616.81 234.505,572.657 232.879,571.931Z" style="fill:rgb(197,160,89);"/>
        <path d="M250.268,335.383C253.412,330.953 255.686,330.83 262.542,328.625C269.913,326.255 270.595,327.158 280.531,317.533C283.149,314.997 283.769,316.11 286.327,318.675C293.939,326.309 294.407,325.789 304.614,329.061C315.555,332.569 316.348,333.978 316.306,345.499C316.2,374.584 316.703,377.493 315.315,378.075C313.794,378.713 256.614,378.286 251.51,378.248C249.115,378.231 249.144,376.671 249.144,375.499C249.126,338.259 249.128,338.214 250.268,335.383Z" style="fill:rgb(9,10,14);"/>
        <path d="M284.93,84.46C287.731,97.86 289.878,96.947 298.898,106.122C300.924,108.183 301.388,107.753 343.501,107.775C383.781,107.795 386.676,106.346 385.606,109.543C385.464,109.965 380.333,115.301 379.612,115.677C377.367,116.847 275.357,115.985 189.5,116.275C186.207,116.286 186.153,115.912 180.515,110.487C180.351,110.33 177.642,107.724 180.529,107.654C184.357,107.56 263.608,108.461 265.29,107.186C282.861,93.871 279.694,84.835 281.37,79.422C281.527,78.917 281.452,78.935 281.359,75.522C281.295,73.185 280.69,73.445 278.875,72.075C273.978,68.377 279.825,65.378 281.289,65.407C281.399,65.409 282.959,65.499 283.056,65.535C283.136,65.564 283.215,65.589 283.293,65.611C284.627,65.989 287.248,66.996 286.105,70.312C285.927,70.828 283.236,72.929 283.283,73.586C283.379,74.926 283.495,76.512 283.638,78.395C283.675,78.889 284.388,78.666 284.93,84.46Z" style="fill:rgb(197,160,89);"/>
        <path d="M189.824,390.467C189.829,389.928 189.876,384.913 192.448,384.262C195.948,383.376 357.172,384.05 371.495,384.11C378.144,384.138 376.863,394.063 372.506,394.569C370.35,394.819 221.62,394.577 208.499,394.555C193.2,394.53 191.217,395.899 189.824,390.467Z" style="fill:rgb(9,10,14);"/>
        <path d="M260.513,136.85C265.18,137.267 265.159,137.209 265.553,137.3C282.36,141.218 279.706,159.17 279.707,159.5C279.723,181.234 279.499,181.384 278.799,181.925C278.067,182.49 244.964,182.559 244.189,181.914C242.793,180.755 242.893,151.431 244.304,148.406C249.401,137.479 256.548,137.648 260.513,136.85Z" style="fill:rgb(9,10,14);"/>
        <path d="M237.134,151.57C237.231,153.989 238.294,180.386 236.797,181.823C236.162,182.432 202.595,182.872 201.438,181.543C201.28,181.361 200.087,154.416 202.195,148.398C207.136,134.292 231.555,130.479 237.134,151.57Z" style="fill:rgb(9,10,14);"/>
        <path d="M346.497,136.829C347.922,137.016 358.091,138.349 362.1,145.725C364.286,149.747 364.376,149.949 364.265,179.498C364.252,183.135 362.066,182.283 346.5,182.28C330.183,182.276 328.143,183.113 328.132,179.501C328.043,151.628 325.738,138.921 346.497,136.829Z" style="fill:rgb(9,10,14);"/>
        <path d="M303.507,136.851C305.481,137.015 321.368,138.331 321.836,153.486C321.903,155.649 322.526,175.817 321.854,180.543C321.546,182.713 320.449,182.265 293.5,182.291C288.25,182.296 285.876,183.766 285.87,178.505C285.841,151.144 285.815,151.059 286.842,148.643C291.724,137.155 300.061,137.312 303.507,136.851Z" style="fill:rgb(9,10,14);"/>
        <path d="M195.84,373.497C196.104,370.293 195.365,369.961 197.557,367.551C198.803,366.182 213.954,362.429 207.163,356.919C200.33,351.375 202.932,343.831 206.652,340.684C216.569,332.298 229.852,347.298 220.257,356.24C212.152,363.794 226.322,364.594 229.081,367.83C231.051,370.141 230.364,377.038 230.231,377.397C229.826,378.497 224.967,378.498 224.5,378.498C198.795,378.507 198.61,379.314 196.675,378.215C194.957,377.239 195.932,376.734 195.84,373.497Z" style="fill:rgb(9,10,14);"/>
        <path d="M347.735,360.571C347.739,358.046 347.574,358.033 345.692,356.288C340.521,351.493 342.28,344.606 344.833,341.811C354.778,330.925 369.584,347.25 359.379,356.363C352.052,362.906 363.676,365.056 366.562,366.388C370.739,368.314 370.602,377.731 368.439,378.312C367.235,378.636 336.966,378.514 336.535,378.394C335.204,378.025 335.305,372.973 335.315,372.491C335.501,363.195 343.066,368.599 347.735,360.571Z" style="fill:rgb(9,10,14);"/>
    </g>
</svg>
